<svg xmlns="http://www.w3.org/2000/svg" xmlns:xlink="http://www.w3.org/1999/xlink" width="750" zoomAndPan="magnify" viewBox="0 0 562.5 749.999995" height="1000" preserveAspectRatio="xMidYMid meet" version="1.0"><defs><filter x="0%" y="0%" width="100%" height="100%" id="84b0455612"><feColorMatrix values="0 0 0 0 1 0 0 0 0 1 0 0 0 0 1 0 0 0 1 0" color-interpolation-filters="sRGB"/></filter><clipPath id="8b462d84f6"><path d="M 0 0.332031 L 562 0.332031 L 562 749.664062 L 0 749.664062 Z M 0 0.332031 " clip-rule="nonzero"/></clipPath><clipPath id="4ba938767d"><path d="M 259 0.332031 L 562 0.332031 L 562 201 L 259 201 Z M 259 0.332031 " clip-rule="nonzero"/></clipPath><mask id="501435934e"><g filter="url(#84b0455612)"><rect x="-56.25" width="675" fill="#000000" y="-74.999999" height="899.999994" fill-opacity="0.098"/></g></mask><clipPath id="032e230c9e"><path d="M 1 0.332031 L 303 0.332031 L 303 199.710938 L 1 199.710938 Z M 1 0.332031 " clip-rule="nonzero"/></clipPath><clipPath id="def73ec165"><rect x="0" width="303" y="0" height="201"/></clipPath><clipPath id="53581af841"><path d="M 159 0.332031 L 541 0.332031 L 541 127 L 159 127 Z M 159 0.332031 " clip-rule="nonzero"/></clipPath><mask id="037104f288"><g filter="url(#84b0455612)"><rect x="-56.25" width="675" fill="#000000" y="-74.999999" height="899.999994" fill-opacity="0.098"/></g></mask><clipPath id="5c926db2f2"><path d="M 1.382812 0.332031 L 381.632812 0.332031 L 381.632812 126.613281 L 1.382812 126.613281 Z M 1.382812 0.332031 " clip-rule="nonzero"/></clipPath><clipPath id="4bb7b00611"><path d="M 102 0.332031 L 326 0.332031 L 326 42 L 102 42 Z M 102 0.332031 " clip-rule="nonzero"/></clipPath><clipPath id="7ddf9ce968"><rect x="0" width="382" y="0" height="127"/></clipPath><clipPath id="bb7d82d5d2"><path d="M 0 0.332031 L 208 0.332031 L 208 154 L 0 154 Z M 0 0.332031 " clip-rule="nonzero"/></clipPath><mask id="7543c4671c"><g filter="url(#84b0455612)"><rect x="-56.25" width="675" fill="#000000" y="-74.999999" height="899.999994" fill-opacity="0.098"/></g></mask><clipPath id="32564ea332"><path d="M 0 0.332031 L 207.894531 0.332031 L 207.894531 153.21875 L 0 153.21875 Z M 0 0.332031 " clip-rule="nonzero"/></clipPath><clipPath id="937dc12ae3"><rect x="0" width="208" y="0" height="154"/></clipPath><mask id="d117a2e566"><g filter="url(#84b0455612)"><rect x="-56.25" width="675" fill="#000000" y="-74.999999" height="899.999994" fill-opacity="0.4"/></g></mask><clipPath id="4555aabe8d"><path d="M 1 0.9375 L 113 0.9375 L 113 115.964844 L 1 115.964844 Z M 1 0.9375 " clip-rule="nonzero"/></clipPath><clipPath id="5de5296fb0"><rect x="0" width="113" y="0" height="186"/></clipPath><mask id="489b7519f7"><g filter="url(#84b0455612)"><rect x="-56.25" width="675" fill="#000000" y="-74.999999" height="899.999994" fill-opacity="0.098"/></g></mask><clipPath id="266b941648"><path d="M 0 0.957031 L 459.394531 0.957031 L 459.394531 286.472656 L 0 286.472656 Z M 0 0.957031 " clip-rule="nonzero"/></clipPath><clipPath id="2998fff1db"><rect x="0" width="460" y="0" height="287"/></clipPath><mask id="8f44064139"><g filter="url(#84b0455612)"><rect x="-56.25" width="675" fill="#000000" y="-74.999999" height="899.999994" fill-opacity="0.098"/></g></mask><clipPath id="757201d6b4"><path d="M 1.148438 0.632812 L 202 0.632812 L 202 317.882812 L 1.148438 317.882812 Z M 1.148438 0.632812 " clip-rule="nonzero"/></clipPath><clipPath id="f406578ad4"><rect x="0" width="202" y="0" height="319"/></clipPath><mask id="5c61b59103"><g filter="url(#84b0455612)"><rect x="-56.25" width="675" fill="#000000" y="-74.999999" height="899.999994" fill-opacity="0.098"/></g></mask><clipPath id="f217d54400"><path d="M 0.300781 0.894531 L 217.800781 0.894531 L 217.800781 218.394531 L 0.300781 218.394531 Z M 0.300781 0.894531 " clip-rule="nonzero"/></clipPath><clipPath id="0ee2e95638"><rect x="0" width="218" y="0" height="219"/></clipPath><mask id="40f5e25131"><g filter="url(#84b0455612)"><rect x="-56.25" width="675" fill="#000000" y="-74.999999" height="899.999994" fill-opacity="0.098"/></g></mask><clipPath id="9016deb461"><path d="M 0.585938 0.496094 L 218.085938 0.496094 L 218.085938 217.972656 L 0.585938 217.972656 Z M 0.585938 0.496094 " clip-rule="nonzero"/></clipPath><clipPath id="9f107a6d45"><rect x="0" width="219" y="0" height="219"/></clipPath><clipPath id="32ac0d01b0"><path d="M 0 593 L 424 593 L 424 749.664062 L 0 749.664062 Z M 0 593 " clip-rule="nonzero"/></clipPath><mask id="4998f328a3"><g filter="url(#84b0455612)"><rect x="-56.25" width="675" fill="#000000" y="-74.999999" height="899.999994" fill-opacity="0.098"/></g></mask><clipPath id="97e3e7226e"><path d="M 0 0.566406 L 423.050781 0.566406 L 423.050781 156.664062 L 0 156.664062 Z M 0 0.566406 " clip-rule="nonzero"/></clipPath><clipPath id="0b3786ddcf"><rect x="0" width="424" y="0" height="157"/></clipPath><mask id="a2d0ac6319"><g filter="url(#84b0455612)"><rect x="-56.25" width="675" fill="#000000" y="-74.999999" height="899.999994" fill-opacity="0.098"/></g></mask><clipPath id="88502b1cb8"><path d="M 1 0.285156 L 300.039062 0.285156 L 300.039062 115.277344 L 1 115.277344 Z M 1 115.277344 L 231.042969 115.277344 L 231.042969 184.273438 L 1 184.273438 Z M 1 115.277344 " clip-rule="nonzero"/></clipPath><clipPath id="653ca32a30"><rect x="0" width="301" y="0" height="185"/></clipPath><clipPath id="04caaffea5"><path d="M 325 668 L 562 668 L 562 749.664062 L 325 749.664062 Z M 325 668 " clip-rule="nonzero"/></clipPath><mask id="b941aa09a8"><g filter="url(#84b0455612)"><rect x="-56.25" width="675" fill="#000000" y="-74.999999" height="899.999994" fill-opacity="0.098"/></g></mask><clipPath id="08d0ae0926"><path d="M 1.253906 0.378906 L 237 0.378906 L 237 81.664062 L 1.253906 81.664062 Z M 1.253906 0.378906 " clip-rule="nonzero"/></clipPath><clipPath id="b5d9b03225"><rect x="0" width="237" y="0" height="82"/></clipPath><mask id="09e96a8e26"><g filter="url(#84b0455612)"><rect x="-56.25" width="675" fill="#000000" y="-74.999999" height="899.999994" fill-opacity="0.4"/></g></mask><clipPath id="1b458e77c2"><path d="M 1.046875 0.367188 L 300.089844 0.367188 L 300.089844 115.394531 L 1.046875 115.394531 Z M 185.0625 115.394531 L 300.089844 115.394531 L 300.089844 184.183594 L 185.0625 184.183594 Z M 185.0625 115.394531 " clip-rule="nonzero"/></clipPath><clipPath id="d94574863f"><rect x="0" width="301" y="0" height="185"/></clipPath></defs><g clip-path="url(#8b462d84f6)"><path fill="#ffffff" d="M 0 0.332031 L 562.5 0.332031 L 562.5 757.082031 L 0 757.082031 Z M 0 0.332031 " fill-opacity="1" fillRule="nonzero"/><path fill="#ffffff" d="M 0 0.332031 L 562.5 0.332031 L 562.5 750.332031 L 0 750.332031 Z M 0 0.332031 " fill-opacity="1" fillRule="nonzero"/><path fill="#dbe7eb" d="M 0 0.332031 L 562.5 0.332031 L 562.5 750.332031 L 0 750.332031 Z M 0 0.332031 " fill-opacity="1" fillRule="nonzero"/></g><g clip-path="url(#4ba938767d)"><g mask="url(#501435934e)"><g transform="matrix(1, 0, 0, 1, 259, -0.000000000000038469)"><g clip-path="url(#def73ec165)"><g clip-path="url(#032e230c9e)"><path fill="#cd9e56" d="M 49.160156 157.546875 L 56.144531 92.863281 L 1.050781 94.726562 L 32.246094 -33.476562 L 328.039062 -77.039062 L 313.996094 38.972656 L 335.488281 38.972656 L 380.882812 199.710938 Z M 49.160156 157.546875 " fill-opacity="1" fillRule="nonzero"/></g></g></g></g></g><g clip-path="url(#53581af841)"><g mask="url(#037104f288)"><g transform="matrix(1, 0, 0, 1, 159, -0.000000000000038469)"><g clip-path="url(#7ddf9ce968)"><g clip-path="url(#5c926db2f2)"><path fill="#3c577b" d="M 178.152344 126.484375 L 178.152344 -10.5 L 348.78125 -10.5 L 381.632812 126.484375 Z M 1.382812 -3.109375 L 1.382812 108.800781 L 91.550781 108.800781 L 105.984375 15.070312 Z M 1.382812 -3.109375 " fill-opacity="1" fillRule="nonzero"/></g><g clip-path="url(#4bb7b00611)"><path fill="#a6a6a6" d="M 118.425781 41.054688 L 102.832031 -96.757812 L 325.722656 -82.5625 L 298.097656 36.65625 Z M 118.425781 41.054688 " fill-opacity="1" fillRule="nonzero"/></g></g></g></g></g><g clip-path="url(#bb7d82d5d2)"><g mask="url(#7543c4671c)"><g transform="matrix(1, 0, 0, 1, 0, -0.000000000000038469)"><g clip-path="url(#937dc12ae3)"><g clip-path="url(#32564ea332)"><path fill="#cd9e56" d="M -123.933594 -81.316406 L -116.953125 -16.632812 L -172.042969 -18.496094 L -140.851562 109.703125 L 154.941406 153.265625 L 140.898438 37.257812 L 162.390625 37.257812 L 207.785156 -123.484375 Z M -123.933594 -81.316406 " fill-opacity="1" fillRule="nonzero"/></g></g></g></g></g><g mask="url(#d117a2e566)"><g transform="matrix(1, 0, 0, 1, 449, 273)"><g clip-path="url(#5de5296fb0)"><g clip-path="url(#4555aabe8d)"><path fill="#c7cdcf" d="M 299.835938 0.9375 L 299.835938 184.953125 L 1.054688 184.953125 L 1.054688 0.9375 Z M 299.835938 0.9375 " fill-opacity="1" fillRule="nonzero"/></g></g></g></g><g mask="url(#489b7519f7)"><g transform="matrix(1, 0, 0, 1, 0, 186)"><g clip-path="url(#2998fff1db)"><g clip-path="url(#266b941648)"><path fill="#3c577b" d="M 177.554688 98.101562 L 124.296875 96.78125 L 109.558594 0.925781 L -15.355469 0.925781 L -15.355469 155.839844 L 76.425781 139.878906 L 59.859375 286.460938 L 368.53125 266.839844 L 350.847656 190.5 L 413.863281 190.5 L 459.394531 1.027344 L 177.554688 1.027344 Z M 177.554688 98.101562 " fill-opacity="1" fillRule="nonzero"/></g></g></g></g><g mask="url(#8f44064139)"><g transform="matrix(1, 0, 0, 1, 360, 342)"><g clip-path="url(#f406578ad4)"><g clip-path="url(#757201d6b4)"><path fill="#a6a6a6" d="M 46.488281 296.601562 L 51.085938 217.433594 L 18.003906 223.351562 L 1.148438 34.515625 L 68.984375 44.265625 L 68.984375 77.757812 L 118.082031 67.867188 L 115.574219 21.355469 L 218.648438 0.746094 L 200.191406 257.679688 L 160.914062 249.183594 L 166.347656 317.769531 Z M 46.488281 296.601562 " fill-opacity="1" fillRule="nonzero"/></g></g></g></g><g mask="url(#5c61b59103)"><g transform="matrix(1, 0, 0, 1, 5, 311)"><g clip-path="url(#0ee2e95638)"><g clip-path="url(#f217d54400)"><path fill="#cd9e56" d="M 217.800781 124.292969 L 217.800781 0.894531 L 54.898438 0.894531 L 54.898438 94.949219 L 0.300781 94.949219 L 0.300781 218.394531 L 163.203125 218.394531 L 163.203125 124.292969 Z M 217.800781 124.292969 " fill-opacity="1" fillRule="nonzero"/></g></g></g></g><g mask="url(#40f5e25131)"><g transform="matrix(1, 0, 0, 1, 177, 493)"><g clip-path="url(#9f107a6d45)"><g clip-path="url(#9016deb461)"><path fill="#cd9e56" d="M 218.085938 94.574219 L 218.085938 217.972656 L 55.183594 217.972656 L 55.183594 123.921875 L 0.585938 123.921875 L 0.585938 0.472656 L 163.488281 0.472656 L 163.488281 94.574219 Z M 218.085938 94.574219 " fill-opacity="1" fillRule="nonzero"/></g></g></g></g><g clip-path="url(#32ac0d01b0)"><g mask="url(#4998f328a3)"><g transform="matrix(1, 0, 0, 1, 0, 593)"><g clip-path="url(#0b3786ddcf)"><g clip-path="url(#97e3e7226e)"><path fill="#a6a6a6" d="M 5.796875 361.933594 L 25.792969 292.027344 L -0.976562 292.660156 L -22.449219 154.015625 L 17.433594 153.484375 L -8.0625 89.078125 L 37.746094 77.128906 L 33.300781 28.691406 L 195.484375 0.773438 L 195.484375 35.777344 L 328.46875 0.984375 L 336.296875 131.277344 L 276.734375 150.207031 L 362.113281 149.148438 L 423.050781 282.824219 L 302.335938 285.574219 L 356.925781 298.691406 L 352.0625 437.019531 Z M 5.796875 361.933594 " fill-opacity="1" fillRule="nonzero"/></g></g></g></g></g><g mask="url(#a2d0ac6319)"><g transform="matrix(1, 0, 0, 1, 207, 409)"><g clip-path="url(#653ca32a30)"><g clip-path="url(#88502b1cb8)"><path fill="#c7cdcf" d="M 300.039062 0.285156 L 300.039062 184.273438 L 1.058594 184.273438 L 1.058594 0.285156 Z M 300.039062 0.285156 " fill-opacity="1" fillRule="nonzero"/></g></g></g></g><g clip-path="url(#04caaffea5)"><g mask="url(#b941aa09a8)"><g transform="matrix(1, 0, 0, 1, 325, 668)"><g clip-path="url(#b5d9b03225)"><g clip-path="url(#08d0ae0926)"><path fill="#3c577b" d="M 195.378906 189.804688 L 141.785156 191.132812 L 126.953125 287.496094 L 1.253906 287.496094 L 1.253906 131.765625 L 93.609375 147.808594 L 76.941406 0.457031 L 387.5625 20.179688 L 369.765625 96.921875 L 433.179688 96.921875 L 479.003906 287.390625 L 195.378906 287.390625 Z M 195.378906 189.804688 " fill-opacity="1" fillRule="nonzero"/></g></g></g></g></g><g mask="url(#09e96a8e26)"><g transform="matrix(1, 0, 0, 1, 95, 61)"><g clip-path="url(#d94574863f)"><g clip-path="url(#1b458e77c2)"><path fill="#c7cdcf" d="M 300.089844 0.367188 L 300.089844 184.382812 L 1.3125 184.382812 L 1.3125 0.367188 Z M 300.089844 0.367188 " fill-opacity="1" fillRule="nonzero"/></g></g></g></g></svg>