<svg xmlns="http://www.w3.org/2000/svg" xmlns:xlink="http://www.w3.org/1999/xlink" width="40" zoomAndPan="magnify" viewBox="0 0 30 30.000001" height="40" preserveAspectRatio="xMidYMid meet" version="1.0"><defs><clipPath id="e7c88103a4"><path d="M 0.484375 0 L 29.515625 0 L 29.515625 29.03125 L 0.484375 29.03125 Z M 0.484375 0 " clip-rule="nonzero"/></clipPath><clipPath id="9aff2d5994"><path d="M 6 21 L 24 21 L 24 29.03125 L 6 29.03125 Z M 6 21 " clip-rule="nonzero"/></clipPath></defs><g clip-path="url(#e7c88103a4)"><path fill="#78d1cc" d="M 29.515625 14.546875 C 29.515625 22.578125 23.019531 29.089844 15.003906 29.089844 C 6.988281 29.089844 0.492188 22.578125 0.492188 14.546875 C 0.492188 6.515625 6.988281 0.00390625 15.003906 0.00390625 C 23.019531 0.00390625 29.515625 6.515625 29.515625 14.546875 " fill-opacity="1" fillRule="nonzero"/></g><g clip-path="url(#9aff2d5994)"><path fill="#ffffff" d="M 23.472656 29.128906 C 22.753906 29.664062 21.980469 30.136719 21.167969 30.527344 C 21.042969 30.589844 20.921875 30.648438 20.796875 30.703125 C 19.027344 31.496094 17.066406 31.9375 15.003906 31.9375 C 12.941406 31.9375 10.984375 31.496094 9.214844 30.703125 C 9.089844 30.648438 8.964844 30.589844 8.839844 30.527344 C 8.027344 30.132812 7.257812 29.664062 6.539062 29.128906 C 6.664062 26.316406 8.15625 23.863281 10.363281 22.410156 C 11.695312 21.535156 13.289062 21.023438 15.003906 21.023438 C 15.265625 21.023438 15.523438 21.039062 15.777344 21.058594 C 17.199219 21.1875 18.515625 21.667969 19.648438 22.410156 C 20.664062 23.078125 21.527344 23.960938 22.175781 24.988281 C 22.9375 26.199219 23.402344 27.613281 23.472656 29.128906 " fill-opacity="1" fillRule="nonzero"/></g><path fill="#ba5c21" d="M 19.648438 22.410156 C 19.515625 23.390625 19.085938 24.277344 18.449219 24.96875 C 17.589844 25.898438 16.367188 26.480469 15.003906 26.480469 C 12.824219 26.480469 10.988281 24.988281 10.46875 22.960938 C 10.421875 22.78125 10.386719 22.597656 10.363281 22.410156 C 11.695312 21.535156 13.289062 21.023438 15.003906 21.023438 C 15.265625 21.023438 15.523438 21.035156 15.78125 21.058594 C 15.824219 21.0625 15.867188 21.070312 15.910156 21.074219 C 15.941406 21.074219 15.96875 21.078125 15.996094 21.082031 C 16.023438 21.085938 16.054688 21.089844 16.085938 21.09375 C 16.101562 21.09375 16.121094 21.097656 16.140625 21.101562 C 16.167969 21.105469 16.195312 21.109375 16.222656 21.113281 C 16.246094 21.113281 16.265625 21.117188 16.289062 21.121094 C 16.304688 21.125 16.324219 21.128906 16.34375 21.128906 C 16.375 21.136719 16.40625 21.140625 16.4375 21.144531 C 16.570312 21.167969 16.707031 21.195312 16.835938 21.222656 L 16.925781 21.242188 C 16.941406 21.25 16.960938 21.253906 16.976562 21.257812 C 17.007812 21.265625 17.042969 21.273438 17.070312 21.28125 C 17.078125 21.28125 17.082031 21.28125 17.085938 21.28125 C 17.125 21.292969 17.164062 21.304688 17.203125 21.3125 C 17.246094 21.324219 17.289062 21.335938 17.328125 21.347656 C 17.375 21.359375 17.421875 21.375 17.46875 21.390625 C 17.503906 21.398438 17.539062 21.410156 17.578125 21.421875 C 17.601562 21.429688 17.625 21.4375 17.644531 21.445312 C 17.683594 21.457031 17.722656 21.46875 17.757812 21.484375 C 17.804688 21.5 17.851562 21.515625 17.894531 21.53125 C 17.898438 21.535156 17.902344 21.535156 17.90625 21.535156 C 17.953125 21.550781 18 21.570312 18.042969 21.585938 C 18.078125 21.601562 18.113281 21.613281 18.148438 21.628906 C 18.242188 21.664062 18.328125 21.703125 18.417969 21.742188 L 18.535156 21.792969 C 18.570312 21.808594 18.605469 21.828125 18.640625 21.84375 C 18.671875 21.859375 18.703125 21.875 18.734375 21.890625 C 18.765625 21.902344 18.792969 21.917969 18.824219 21.933594 C 18.839844 21.941406 18.859375 21.953125 18.878906 21.960938 C 18.957031 22 19.03125 22.042969 19.105469 22.082031 C 19.132812 22.097656 19.160156 22.113281 19.183594 22.128906 C 19.203125 22.136719 19.21875 22.148438 19.234375 22.15625 L 19.296875 22.195312 L 19.363281 22.234375 L 19.402344 22.257812 C 19.441406 22.28125 19.480469 22.304688 19.519531 22.328125 C 19.5625 22.355469 19.605469 22.382812 19.648438 22.410156 " fill-opacity="1" fillRule="nonzero"/><path fill="#ba5c21" d="M 17.066406 18.695312 L 17.066406 22.765625 C 17.066406 23.792969 16.226562 24.636719 15.203125 24.636719 L 14.808594 24.636719 C 13.78125 24.636719 12.941406 23.792969 12.941406 22.765625 L 12.941406 18.695312 C 12.941406 17.667969 13.78125 16.828125 14.808594 16.828125 L 15.203125 16.828125 C 16.226562 16.828125 17.066406 17.667969 17.066406 18.695312 " fill-opacity="1" fillRule="nonzero"/><path fill="#9e392b" d="M 17.066406 18.695312 L 17.066406 20.847656 C 16.453125 21.191406 15.804688 21.390625 15.144531 21.390625 C 14.363281 21.390625 13.621094 21.171875 12.941406 20.792969 L 12.941406 18.695312 C 12.941406 17.667969 13.78125 16.828125 14.808594 16.828125 L 15.203125 16.828125 C 16.226562 16.828125 17.066406 17.667969 17.066406 18.695312 " fill-opacity="1" fillRule="nonzero"/><path fill="#ba5c21" d="M 20.035156 17.128906 C 20.035156 17.128906 21.003906 16.796875 21.621094 15.71875 C 22.289062 14.546875 21.867188 13.816406 21.734375 13.65625 C 21.371094 13.226562 20.8125 13.503906 20.71875 13.65625 C 20.625 13.8125 19.289062 16.246094 20.035156 17.128906 " fill-opacity="1" fillRule="nonzero"/><path fill="#9e392b" d="M 20.984375 14.042969 C 20.984375 14.042969 21.597656 14.121094 21.382812 14.984375 C 21.164062 15.847656 20.597656 16.191406 19.828125 16.632812 C 19.058594 17.074219 20.214844 14.21875 20.984375 14.042969 " fill-opacity="1" fillRule="nonzero"/><path fill="#ba5c21" d="M 10.226562 17.128906 C 10.226562 17.128906 9.257812 16.796875 8.640625 15.71875 C 7.96875 14.546875 8.390625 13.816406 8.523438 13.65625 C 8.886719 13.226562 9.449219 13.503906 9.539062 13.65625 C 9.632812 13.8125 10.972656 16.246094 10.226562 17.128906 " fill-opacity="1" fillRule="nonzero"/><path fill="#9e392b" d="M 9.277344 14.042969 C 9.277344 14.042969 8.664062 14.121094 8.878906 14.984375 C 9.09375 15.847656 9.664062 16.191406 10.433594 16.632812 C 11.203125 17.074219 10.046875 14.21875 9.277344 14.042969 " fill-opacity="1" fillRule="nonzero"/><path fill="#ba5c21" d="M 20.984375 13.472656 C 20.984375 13.667969 20.976562 13.863281 20.957031 14.058594 C 20.671875 17.394531 18.007812 20.730469 15.144531 20.730469 C 11.917969 20.730469 9.304688 17.019531 9.304688 13.472656 C 9.304688 11.582031 10.042969 9.886719 11.222656 8.710938 C 12.257812 9.9375 13.632812 10.753906 15.144531 10.753906 C 16.128906 10.753906 17.089844 10.359375 17.9375 9.703125 C 17.9375 9.703125 17.941406 9.703125 17.949219 9.699219 C 18.328125 9.402344 18.691406 9.054688 19.019531 8.664062 C 20.222656 9.839844 20.984375 11.558594 20.984375 13.472656 " fill-opacity="1" fillRule="nonzero"/><path fill="#331520" d="M 19.21875 7.820312 C 19.074219 9.980469 16.578125 10.753906 15.144531 10.753906 C 13.632812 10.753906 12.257812 9.9375 11.222656 8.710938 C 9.304688 8.347656 12.070312 6.742188 15.144531 6.621094 C 15.765625 6.59375 18.640625 7.054688 19.21875 7.820312 " fill-opacity="1" fillRule="nonzero"/><path fill="#331520" d="M 20.984375 13.472656 C 20.960938 13.664062 20.976562 13.863281 20.957031 14.058594 C 20.808594 13.867188 20.5 13.769531 20.5 12.886719 C 20.5 11.773438 20.292969 10.957031 19.648438 10.152344 C 19.035156 9.398438 18.035156 9.632812 17.949219 9.699219 C 18.328125 9.402344 18.691406 8.121094 19.019531 7.730469 C 21.425781 8.714844 21.21875 11.527344 20.984375 13.472656 " fill-opacity="1" fillRule="nonzero"/><path fill="#331520" d="M 9.234375 13.472656 C 9.257812 13.664062 9.242188 13.863281 9.261719 14.058594 C 9.410156 13.867188 9.71875 13.769531 9.71875 12.886719 C 9.71875 11.773438 9.925781 10.957031 10.570312 10.152344 C 11.183594 9.398438 12.183594 9.632812 12.273438 9.699219 C 11.890625 9.402344 11.527344 8.121094 11.199219 7.730469 C 8.792969 8.714844 9 11.527344 9.234375 13.472656 " fill-opacity="1" fillRule="nonzero"/></svg>