<svg xmlns="http://www.w3.org/2000/svg" xmlns:xlink="http://www.w3.org/1999/xlink" width="40" zoomAndPan="magnify" viewBox="0 0 30 30.000001" height="40" preserveAspectRatio="xMidYMid meet" version="1.0"><defs><clipPath id="fe5c801d82"><path d="M 0.484375 0 L 29.515625 0 L 29.515625 29.03125 L 0.484375 29.03125 Z M 0.484375 0 " clip-rule="nonzero"/></clipPath><clipPath id="a495a453f9"><path d="M 6 21 L 24 21 L 24 29.03125 L 6 29.03125 Z M 6 21 " clip-rule="nonzero"/></clipPath></defs><g clip-path="url(#fe5c801d82)"><path fill="#eec124" d="M 15.148438 0.078125 C 7.175781 -0.00390625 0.648438 6.421875 0.566406 14.425781 C 0.484375 22.429688 6.882812 28.988281 14.851562 29.066406 C 22.824219 29.148438 29.351562 22.726562 29.433594 14.722656 C 29.515625 6.714844 23.121094 0.160156 15.148438 0.078125 " fill-opacity="1" fillRule="nonzero"/></g><g clip-path="url(#a495a453f9)"><path fill="#ffffff" d="M 23.273438 29.195312 C 22.554688 29.722656 21.78125 30.183594 20.96875 30.566406 C 20.847656 30.625 20.722656 30.683594 20.597656 30.738281 C 18.828125 31.511719 16.875 31.929688 14.824219 31.910156 C 12.773438 31.890625 10.828125 31.429688 9.078125 30.617188 C 8.953125 30.5625 8.828125 30.503906 8.707031 30.441406 C 7.902344 30.039062 7.140625 29.5625 6.433594 29.023438 C 6.585938 26.222656 8.09375 23.789062 10.304688 22.367188 C 11.640625 21.503906 13.230469 21.015625 14.933594 21.03125 C 15.195312 21.035156 15.453125 21.046875 15.707031 21.074219 C 17.117188 21.214844 18.421875 21.707031 19.539062 22.460938 C 20.542969 23.136719 21.390625 24.023438 22.027344 25.054688 C 22.773438 26.269531 23.222656 27.683594 23.273438 29.195312 " fill-opacity="1" fillRule="nonzero"/></g><path fill="#ba5c21" d="M 19.539062 22.460938 C 19.398438 23.4375 18.960938 24.316406 18.320312 25 C 17.457031 25.917969 16.234375 26.484375 14.878906 26.46875 C 12.710938 26.449219 10.902344 24.9375 10.40625 22.914062 C 10.359375 22.738281 10.328125 22.554688 10.304688 22.367188 C 11.640625 21.503906 13.230469 21.015625 14.933594 21.03125 C 15.195312 21.035156 15.453125 21.046875 15.707031 21.074219 C 15.75 21.078125 15.792969 21.082031 15.835938 21.089844 C 15.863281 21.09375 15.890625 21.09375 15.917969 21.097656 C 15.949219 21.101562 15.980469 21.105469 16.007812 21.113281 C 16.027344 21.113281 16.046875 21.117188 16.0625 21.117188 C 16.089844 21.121094 16.117188 21.128906 16.144531 21.128906 C 16.167969 21.132812 16.1875 21.136719 16.210938 21.140625 C 16.230469 21.144531 16.246094 21.148438 16.265625 21.152344 C 16.296875 21.15625 16.328125 21.160156 16.359375 21.164062 C 16.492188 21.191406 16.625 21.21875 16.757812 21.25 C 16.785156 21.253906 16.816406 21.261719 16.84375 21.269531 C 16.859375 21.273438 16.878906 21.277344 16.894531 21.28125 C 16.925781 21.289062 16.957031 21.296875 16.988281 21.308594 C 16.992188 21.308594 16.996094 21.308594 17 21.308594 C 17.042969 21.320312 17.082031 21.332031 17.121094 21.34375 C 17.160156 21.351562 17.203125 21.367188 17.242188 21.378906 C 17.289062 21.390625 17.335938 21.40625 17.382812 21.417969 C 17.417969 21.429688 17.453125 21.441406 17.488281 21.453125 C 17.511719 21.460938 17.535156 21.46875 17.558594 21.476562 C 17.59375 21.492188 17.632812 21.503906 17.667969 21.515625 C 17.714844 21.535156 17.761719 21.550781 17.804688 21.566406 C 17.808594 21.566406 17.8125 21.570312 17.8125 21.570312 C 17.859375 21.585938 17.90625 21.605469 17.953125 21.621094 C 17.988281 21.636719 18.019531 21.652344 18.054688 21.664062 C 18.148438 21.703125 18.234375 21.742188 18.324219 21.78125 C 18.363281 21.800781 18.402344 21.816406 18.4375 21.835938 C 18.472656 21.851562 18.507812 21.867188 18.542969 21.886719 C 18.574219 21.902344 18.605469 21.914062 18.636719 21.933594 C 18.667969 21.945312 18.695312 21.960938 18.722656 21.976562 C 18.742188 21.984375 18.757812 21.996094 18.777344 22.003906 C 18.855469 22.042969 18.929688 22.085938 19 22.128906 C 19.027344 22.140625 19.054688 22.160156 19.082031 22.171875 C 19.097656 22.183594 19.113281 22.191406 19.132812 22.203125 L 19.195312 22.238281 C 19.214844 22.253906 19.234375 22.265625 19.257812 22.28125 C 19.269531 22.289062 19.285156 22.296875 19.296875 22.304688 C 19.335938 22.328125 19.375 22.351562 19.414062 22.378906 C 19.457031 22.40625 19.496094 22.433594 19.539062 22.460938 " fill-opacity="1" fillRule="nonzero"/><path fill="#ba5c21" d="M 17.011719 18.730469 L 16.96875 22.785156 C 16.957031 23.8125 16.113281 24.644531 15.09375 24.632812 L 14.703125 24.628906 C 13.679688 24.617188 12.855469 23.769531 12.867188 22.746094 L 12.90625 18.691406 C 12.917969 17.664062 13.761719 16.835938 14.78125 16.84375 L 15.171875 16.847656 C 16.195312 16.859375 17.019531 17.707031 17.011719 18.730469 " fill-opacity="1" fillRule="nonzero"/><path fill="#9e392b" d="M 17.011719 18.730469 L 16.988281 20.878906 C 16.375 21.210938 15.726562 21.402344 15.070312 21.394531 C 14.292969 21.386719 13.558594 21.164062 12.886719 20.78125 L 12.90625 18.691406 C 12.917969 17.664062 13.761719 16.835938 14.78125 16.84375 L 15.171875 16.847656 C 16.195312 16.859375 17.019531 17.707031 17.011719 18.730469 " fill-opacity="1" fillRule="nonzero"/><path fill="#ba5c21" d="M 19.976562 17.199219 C 19.976562 17.199219 20.941406 16.878906 21.566406 15.8125 C 22.246094 14.648438 21.835938 13.914062 21.707031 13.757812 C 21.347656 13.324219 20.789062 13.59375 20.695312 13.746094 C 20.601562 13.898438 19.246094 16.3125 19.976562 17.199219 " fill-opacity="1" fillRule="nonzero"/><path fill="#9e392b" d="M 20.953125 14.132812 C 20.953125 14.132812 21.5625 14.21875 21.335938 15.074219 C 21.113281 15.933594 20.546875 16.269531 19.777344 16.703125 C 19.007812 17.136719 20.183594 14.300781 20.953125 14.132812 " fill-opacity="1" fillRule="nonzero"/><path fill="#ba5c21" d="M 10.222656 17.097656 C 10.222656 17.097656 9.261719 16.757812 8.660156 15.679688 C 8.003906 14.503906 8.429688 13.777344 8.5625 13.621094 C 8.929688 13.195312 9.484375 13.476562 9.574219 13.632812 C 9.664062 13.785156 10.972656 16.226562 10.222656 17.097656 " fill-opacity="1" fillRule="nonzero"/><path fill="#9e392b" d="M 9.308594 14.011719 C 9.308594 14.011719 8.699219 14.085938 8.90625 14.949219 C 9.109375 15.8125 9.671875 16.160156 10.429688 16.605469 C 11.195312 17.054688 10.074219 14.195312 9.308594 14.011719 " fill-opacity="1" fillRule="nonzero"/><path fill="#351f16" d="M 9.40625 6.617188 C 9.445312 7.285156 9.339844 13.445312 9.339844 13.445312 L 20.957031 13.5625 C 20.957031 13.5625 21.625 8.21875 21.027344 6.78125 C 20.429688 5.34375 19.859375 6.722656 19.859375 6.722656 C 19.859375 6.722656 19.058594 5.460938 17.136719 6.28125 C 17.136719 6.28125 16.839844 5.476562 15.597656 5.726562 C 15.597656 5.726562 14.144531 4.265625 13.257812 5.457031 C 13.257812 5.457031 11.9375 4.425781 11.375 5.527344 C 11.375 5.527344 9.289062 4.816406 9.40625 6.617188 " fill-opacity="1" fillRule="nonzero"/><path fill="#ba5c21" d="M 20.957031 13.5625 C 20.992188 10.027344 18.421875 7.132812 15.214844 7.097656 C 12.007812 7.066406 9.378906 9.90625 9.339844 13.445312 C 9.304688 16.980469 11.867188 20.707031 15.074219 20.738281 C 18.089844 20.769531 20.921875 17.070312 20.957031 13.5625 " fill-opacity="1" fillRule="nonzero"/><path fill="#351f16" d="M 20.929688 8.164062 L 15.867188 6.40625 L 15.347656 6.398438 L 15.085938 6.398438 L 14.5625 6.390625 L 9.46875 8.046875 L 9.328125 13.445312 C 9.460938 12.246094 10.539062 9.121094 11.542969 9.636719 C 12.359375 10.058594 14.332031 10.246094 15.042969 10.304688 L 15.042969 10.320312 C 15.042969 10.320312 15.09375 10.316406 15.175781 10.3125 C 15.257812 10.320312 15.308594 10.320312 15.308594 10.320312 L 15.308594 10.304688 C 16.019531 10.265625 17.996094 10.117188 18.820312 9.710938 C 19.835938 9.214844 20.847656 12.359375 20.957031 13.5625 L 20.929688 8.164062 " fill-opacity="1" fillRule="nonzero"/></svg>