<svg xmlns="http://www.w3.org/2000/svg" xmlns:xlink="http://www.w3.org/1999/xlink" width="40" zoomAndPan="magnify" viewBox="0 0 30 30.000001" height="40" preserveAspectRatio="xMidYMid meet" version="1.0"><defs><clipPath id="4b860cd9f1"><path d="M 0.652344 0 L 29.515625 0 L 29.515625 29.03125 L 0.652344 29.03125 Z M 0.652344 0 " clip-rule="nonzero"/></clipPath><clipPath id="96cf5bac58"><path d="M 6 21 L 24 21 L 24 29.03125 L 6 29.03125 Z M 6 21 " clip-rule="nonzero"/></clipPath></defs><g clip-path="url(#4b860cd9f1)"><path fill="#78d1cc" d="M 29.683594 14.546875 C 29.683594 22.578125 23.1875 29.089844 15.171875 29.089844 C 7.15625 29.089844 0.660156 22.578125 0.660156 14.546875 C 0.660156 6.515625 7.15625 0.00390625 15.171875 0.00390625 C 23.1875 0.00390625 29.683594 6.515625 29.683594 14.546875 " fill-opacity="1" fillRule="nonzero"/></g><path fill="#fac565" d="M 20.824219 6.980469 C 20.824219 9.0625 19.136719 10.753906 17.058594 10.753906 C 14.980469 10.753906 13.292969 9.0625 13.292969 6.980469 C 13.292969 4.894531 14.980469 3.207031 17.058594 3.207031 C 19.136719 3.207031 20.824219 4.894531 20.824219 6.980469 " fill-opacity="1" fillRule="nonzero"/><path fill="#fac565" d="M 13.957031 6.980469 L 13.292969 6.980469 C 13.292969 6.980469 12.457031 18.234375 14.628906 21.800781 C 16.800781 25.363281 22.875 25.28125 23.660156 21.253906 C 23.660156 21.253906 19.742188 22.863281 20.824219 6.980469 L 13.957031 6.980469 " fill-opacity="1" fillRule="nonzero"/><g clip-path="url(#96cf5bac58)"><path fill="#ffffff" d="M 23.617188 29.128906 C 22.898438 29.664062 22.128906 30.136719 21.3125 30.527344 C 21.191406 30.589844 21.066406 30.648438 20.941406 30.703125 C 19.171875 31.496094 17.210938 31.9375 15.148438 31.9375 C 13.085938 31.9375 11.125 31.496094 9.359375 30.703125 C 9.234375 30.648438 9.109375 30.589844 8.984375 30.527344 C 8.167969 30.132812 7.398438 29.664062 6.683594 29.128906 C 6.808594 26.316406 8.300781 23.863281 10.507812 22.410156 C 11.839844 21.535156 13.433594 21.023438 15.148438 21.023438 C 15.410156 21.023438 15.667969 21.039062 15.925781 21.058594 C 17.34375 21.1875 18.660156 21.667969 19.792969 22.410156 C 20.808594 23.078125 21.671875 23.960938 22.320312 24.988281 C 23.082031 26.199219 23.546875 27.613281 23.617188 29.128906 " fill-opacity="1" fillRule="nonzero"/></g><path fill="#fbd5c0" d="M 19.792969 22.410156 C 19.664062 23.390625 19.230469 24.277344 18.59375 24.96875 C 17.738281 25.898438 16.511719 26.480469 15.148438 26.480469 C 12.96875 26.480469 11.132812 24.988281 10.613281 22.960938 C 10.566406 22.78125 10.53125 22.597656 10.507812 22.410156 C 11.839844 21.535156 13.433594 21.023438 15.148438 21.023438 C 15.410156 21.023438 15.667969 21.035156 15.925781 21.058594 C 15.96875 21.0625 16.011719 21.070312 16.058594 21.074219 C 16.082031 21.074219 16.113281 21.078125 16.136719 21.082031 C 16.167969 21.085938 16.199219 21.089844 16.230469 21.09375 C 16.246094 21.09375 16.265625 21.097656 16.285156 21.101562 C 16.3125 21.105469 16.339844 21.109375 16.367188 21.113281 C 16.390625 21.113281 16.410156 21.117188 16.433594 21.121094 C 16.449219 21.125 16.46875 21.128906 16.488281 21.128906 C 16.519531 21.136719 16.550781 21.140625 16.582031 21.144531 C 16.714844 21.167969 16.851562 21.195312 16.980469 21.222656 C 17.011719 21.230469 17.042969 21.238281 17.070312 21.242188 C 17.089844 21.25 17.105469 21.253906 17.121094 21.257812 C 17.152344 21.265625 17.183594 21.273438 17.214844 21.28125 C 17.222656 21.28125 17.226562 21.28125 17.230469 21.28125 C 17.269531 21.292969 17.308594 21.304688 17.347656 21.3125 C 17.390625 21.324219 17.433594 21.335938 17.472656 21.347656 C 17.519531 21.359375 17.566406 21.375 17.613281 21.390625 C 17.648438 21.398438 17.683594 21.410156 17.722656 21.421875 C 17.746094 21.429688 17.769531 21.4375 17.789062 21.445312 C 17.828125 21.457031 17.867188 21.46875 17.902344 21.484375 C 17.949219 21.5 17.996094 21.515625 18.039062 21.53125 C 18.042969 21.535156 18.046875 21.535156 18.050781 21.535156 C 18.097656 21.550781 18.144531 21.570312 18.1875 21.585938 C 18.222656 21.601562 18.257812 21.613281 18.292969 21.628906 C 18.386719 21.664062 18.476562 21.703125 18.5625 21.742188 L 18.679688 21.792969 C 18.714844 21.808594 18.75 21.828125 18.785156 21.84375 C 18.816406 21.859375 18.847656 21.875 18.878906 21.890625 C 18.910156 21.902344 18.9375 21.917969 18.96875 21.933594 C 18.988281 21.941406 19.007812 21.953125 19.023438 21.960938 C 19.101562 22 19.175781 22.042969 19.25 22.082031 C 19.277344 22.097656 19.304688 22.113281 19.328125 22.128906 C 19.347656 22.136719 19.363281 22.148438 19.378906 22.15625 L 19.441406 22.195312 C 19.464844 22.207031 19.488281 22.21875 19.507812 22.234375 C 19.519531 22.242188 19.535156 22.25 19.546875 22.257812 C 19.589844 22.28125 19.628906 22.304688 19.664062 22.328125 C 19.707031 22.355469 19.75 22.382812 19.792969 22.410156 " fill-opacity="1" fillRule="nonzero"/><path fill="#fbd5c0" d="M 16.78125 19.121094 L 16.78125 22.339844 C 16.78125 23.152344 16.117188 23.820312 15.304688 23.820312 L 14.992188 23.820312 C 14.179688 23.820312 13.519531 23.152344 13.519531 22.339844 L 13.519531 19.121094 C 13.519531 18.308594 14.179688 17.644531 14.992188 17.644531 L 15.304688 17.644531 C 16.117188 17.644531 16.78125 18.308594 16.78125 19.121094 " fill-opacity="1" fillRule="nonzero"/><path fill="#f8a29e" d="M 16.78125 19.121094 L 16.78125 20.824219 C 16.296875 21.09375 15.78125 21.253906 15.257812 21.253906 C 14.644531 21.253906 14.054688 21.078125 13.519531 20.78125 L 13.519531 19.121094 C 13.519531 18.308594 14.179688 17.644531 14.992188 17.644531 L 15.304688 17.644531 C 16.117188 17.644531 16.78125 18.308594 16.78125 19.121094 " fill-opacity="1" fillRule="nonzero"/><path fill="#fbd5c0" d="M 20.179688 17.128906 C 20.179688 17.128906 21.148438 16.796875 21.765625 15.71875 C 22.4375 14.546875 22.015625 13.816406 21.882812 13.65625 C 21.519531 13.226562 20.957031 13.503906 20.867188 13.65625 C 20.773438 13.8125 19.433594 16.246094 20.179688 17.128906 " fill-opacity="1" fillRule="nonzero"/><path fill="#f8a29e" d="M 21.128906 14.042969 C 21.128906 14.042969 21.742188 14.121094 21.527344 14.984375 C 21.308594 15.847656 20.742188 16.191406 19.972656 16.632812 C 19.203125 17.074219 20.359375 14.21875 21.128906 14.042969 " fill-opacity="1" fillRule="nonzero"/><path fill="#fbd5c0" d="M 10.367188 17.128906 C 10.367188 17.128906 9.402344 16.796875 8.785156 15.71875 C 8.113281 14.546875 8.535156 13.816406 8.667969 13.65625 C 9.03125 13.226562 9.59375 13.503906 9.683594 13.65625 C 9.777344 13.8125 11.113281 16.246094 10.367188 17.128906 " fill-opacity="1" fillRule="nonzero"/><path fill="#f8a29e" d="M 9.421875 14.042969 C 9.421875 14.042969 8.808594 14.121094 9.023438 14.984375 C 9.238281 15.847656 9.804688 16.191406 10.578125 16.632812 C 11.347656 17.074219 10.191406 14.21875 9.421875 14.042969 " fill-opacity="1" fillRule="nonzero"/><path fill="#fbd5c0" d="M 21.128906 13.472656 C 21.128906 9.921875 18.511719 7.042969 15.289062 7.042969 C 12.0625 7.042969 9.445312 9.921875 9.445312 13.472656 C 9.445312 17.019531 12.0625 20.730469 15.289062 20.730469 C 18.320312 20.730469 21.128906 16.992188 21.128906 13.472656 " fill-opacity="1" fillRule="nonzero"/><path fill="#fac565" d="M 15.8125 10.878906 C 15.8125 10.878906 16.914062 14.421875 21.046875 14.070312 C 21.046875 14.070312 21.765625 13.023438 21.523438 10.753906 C 21.246094 8.191406 18.984375 6.035156 15.289062 6.804688 C 15.289062 6.804688 14.949219 8.625 15.8125 10.878906 " fill-opacity="1" fillRule="nonzero"/><path fill="#fac565" d="M 15.996094 7.042969 C 15.996094 7.042969 16.152344 6.375 15.597656 5.847656 C 15.042969 5.324219 7.703125 6.402344 9.445312 13.472656 C 9.445312 13.472656 11.15625 9.242188 15.691406 8.875 L 15.996094 7.042969 " fill-opacity="1" fillRule="nonzero"/></svg>