<svg xmlns="http://www.w3.org/2000/svg" xmlns:xlink="http://www.w3.org/1999/xlink" width="40" zoomAndPan="magnify" viewBox="0 0 30 30.000001" height="40" preserveAspectRatio="xMidYMid meet" version="1.0"><defs><clipPath id="762588a169"><path d="M 0.484375 0.148438 L 29.515625 0.148438 L 29.515625 29.03125 L 0.484375 29.03125 Z M 0.484375 0.148438 " clip-rule="nonzero"/></clipPath><clipPath id="633539a305"><path d="M 6 21 L 24 21 L 24 29.03125 L 6 29.03125 Z M 6 21 " clip-rule="nonzero"/></clipPath></defs><g clip-path="url(#762588a169)"><path fill="#f366ba" d="M 29.515625 14.695312 C 29.515625 22.726562 23.019531 29.238281 15.003906 29.238281 C 6.988281 29.238281 0.492188 22.726562 0.492188 14.695312 C 0.492188 6.664062 6.988281 0.15625 15.003906 0.15625 C 23.019531 0.15625 29.515625 6.664062 29.515625 14.695312 " fill-opacity="1" fillRule="nonzero"/></g><path fill="#331520" d="M 19.5625 5.882812 C 19.5625 8.363281 17.554688 10.375 15.078125 10.375 C 12.601562 10.375 10.597656 8.363281 10.597656 5.882812 C 10.597656 3.402344 12.601562 1.394531 15.078125 1.394531 C 17.554688 1.394531 19.5625 3.402344 19.5625 5.882812 " fill-opacity="1" fillRule="nonzero"/><g clip-path="url(#633539a305)"><path fill="#ffffff" d="M 23.472656 29.277344 C 22.753906 29.816406 21.980469 30.285156 21.167969 30.679688 C 21.042969 30.738281 20.921875 30.796875 20.796875 30.851562 C 19.027344 31.648438 17.066406 32.089844 15.003906 32.089844 C 12.941406 32.089844 10.984375 31.648438 9.214844 30.851562 C 9.089844 30.796875 8.964844 30.738281 8.839844 30.679688 C 8.027344 30.285156 7.257812 29.816406 6.539062 29.277344 C 6.664062 26.46875 8.15625 24.011719 10.363281 22.5625 C 11.695312 21.683594 13.289062 21.175781 15.003906 21.175781 C 15.265625 21.175781 15.523438 21.1875 15.777344 21.210938 C 17.199219 21.339844 18.515625 21.816406 19.648438 22.5625 C 20.664062 23.230469 21.527344 24.109375 22.175781 25.140625 C 22.9375 26.347656 23.402344 27.761719 23.472656 29.277344 " fill-opacity="1" fillRule="nonzero"/></g><path fill="#ba5c21" d="M 19.648438 22.5625 C 19.515625 23.542969 19.085938 24.429688 18.449219 25.121094 C 17.589844 26.050781 16.367188 26.632812 15.003906 26.632812 C 12.824219 26.632812 10.988281 25.136719 10.46875 23.113281 C 10.421875 22.933594 10.386719 22.75 10.363281 22.5625 C 11.695312 21.683594 13.289062 21.175781 15.003906 21.175781 C 15.265625 21.175781 15.523438 21.1875 15.78125 21.210938 C 15.824219 21.214844 15.867188 21.21875 15.910156 21.222656 C 15.941406 21.226562 15.96875 21.230469 15.996094 21.234375 C 16.023438 21.234375 16.054688 21.238281 16.085938 21.242188 C 16.101562 21.246094 16.121094 21.25 16.140625 21.25 C 16.167969 21.253906 16.195312 21.257812 16.222656 21.261719 C 16.246094 21.265625 16.265625 21.269531 16.289062 21.269531 C 16.304688 21.273438 16.324219 21.277344 16.34375 21.28125 C 16.375 21.285156 16.40625 21.289062 16.4375 21.296875 C 16.570312 21.320312 16.707031 21.34375 16.835938 21.375 L 16.925781 21.394531 C 16.941406 21.398438 16.960938 21.402344 16.976562 21.40625 C 17.007812 21.414062 17.042969 21.421875 17.070312 21.429688 C 17.078125 21.429688 17.082031 21.429688 17.085938 21.433594 C 17.125 21.441406 17.164062 21.453125 17.203125 21.464844 C 17.246094 21.472656 17.289062 21.484375 17.328125 21.5 C 17.375 21.511719 17.421875 21.523438 17.46875 21.539062 C 17.503906 21.550781 17.539062 21.5625 17.578125 21.574219 C 17.601562 21.582031 17.625 21.589844 17.644531 21.59375 C 17.683594 21.609375 17.722656 21.621094 17.757812 21.632812 C 17.804688 21.648438 17.851562 21.664062 17.894531 21.679688 C 17.898438 21.683594 17.902344 21.683594 17.90625 21.683594 C 17.953125 21.703125 18 21.71875 18.042969 21.738281 C 18.078125 21.75 18.113281 21.765625 18.148438 21.777344 C 18.242188 21.816406 18.328125 21.851562 18.417969 21.890625 L 18.535156 21.945312 C 18.570312 21.960938 18.605469 21.976562 18.640625 21.992188 C 18.671875 22.007812 18.703125 22.023438 18.734375 22.039062 C 18.765625 22.054688 18.792969 22.070312 18.824219 22.082031 C 18.839844 22.09375 18.859375 22.101562 18.878906 22.113281 C 18.957031 22.152344 19.03125 22.191406 19.105469 22.234375 C 19.132812 22.246094 19.160156 22.261719 19.183594 22.277344 C 19.203125 22.289062 19.21875 22.296875 19.234375 22.308594 L 19.296875 22.34375 L 19.363281 22.382812 L 19.402344 22.40625 C 19.441406 22.429688 19.480469 22.453125 19.519531 22.480469 C 19.5625 22.507812 19.605469 22.535156 19.648438 22.5625 " fill-opacity="1" fillRule="nonzero"/><path fill="#ba5c21" d="M 16.636719 19.273438 L 16.636719 22.488281 C 16.636719 23.304688 15.972656 23.96875 15.160156 23.96875 L 14.847656 23.96875 C 14.039062 23.96875 13.375 23.304688 13.375 22.488281 L 13.375 19.273438 C 13.375 18.457031 14.039062 17.792969 14.847656 17.792969 L 15.160156 17.792969 C 15.972656 17.792969 16.636719 18.457031 16.636719 19.273438 " fill-opacity="1" fillRule="nonzero"/><path fill="#9e392b" d="M 16.636719 19.273438 L 16.636719 20.972656 C 16.152344 21.246094 15.636719 21.402344 15.113281 21.402344 C 14.5 21.402344 13.910156 21.230469 13.375 20.929688 L 13.375 19.273438 C 13.375 18.457031 14.039062 17.792969 14.847656 17.792969 L 15.160156 17.792969 C 15.972656 17.792969 16.636719 18.457031 16.636719 19.273438 " fill-opacity="1" fillRule="nonzero"/><path fill="#ba5c21" d="M 20.035156 17.277344 C 20.035156 17.277344 21.003906 16.949219 21.621094 15.867188 C 22.289062 14.695312 21.867188 13.964844 21.734375 13.808594 C 21.371094 13.375 20.8125 13.652344 20.71875 13.808594 C 20.625 13.960938 19.289062 16.398438 20.035156 17.277344 " fill-opacity="1" fillRule="nonzero"/><path fill="#9e392b" d="M 20.984375 14.191406 C 20.984375 14.191406 21.597656 14.269531 21.382812 15.132812 C 21.164062 16 20.597656 16.339844 19.828125 16.78125 C 19.058594 17.222656 20.214844 14.367188 20.984375 14.191406 " fill-opacity="1" fillRule="nonzero"/><path fill="#ba5c21" d="M 10.226562 17.277344 C 10.226562 17.277344 9.257812 16.949219 8.640625 15.867188 C 7.96875 14.695312 8.390625 13.964844 8.523438 13.808594 C 8.886719 13.375 9.449219 13.652344 9.539062 13.808594 C 9.632812 13.960938 10.972656 16.398438 10.226562 17.277344 " fill-opacity="1" fillRule="nonzero"/><path fill="#9e392b" d="M 9.277344 14.191406 C 9.277344 14.191406 8.664062 14.269531 8.878906 15.132812 C 9.09375 16 9.664062 16.339844 10.433594 16.78125 C 11.203125 17.222656 10.046875 14.367188 9.277344 14.191406 " fill-opacity="1" fillRule="nonzero"/><path fill="#ba5c21" d="M 20.984375 13.621094 C 20.984375 10.074219 18.367188 7.195312 15.144531 7.195312 C 11.917969 7.195312 9.304688 10.074219 9.304688 13.621094 C 9.304688 17.171875 11.917969 20.878906 15.144531 20.878906 C 18.171875 20.878906 20.984375 17.140625 20.984375 13.621094 " fill-opacity="1" fillRule="nonzero"/><path fill="#331520" d="M 15.667969 11.03125 C 15.667969 11.03125 16.765625 14.570312 20.898438 14.21875 C 20.898438 14.21875 21.621094 13.175781 21.378906 10.902344 C 21.101562 8.339844 18.835938 6.183594 15.144531 6.957031 C 15.144531 6.957031 14.804688 8.777344 15.667969 11.03125 " fill-opacity="1" fillRule="nonzero"/><path fill="#331520" d="M 15.855469 7.195312 C 15.855469 7.195312 16.007812 6.523438 15.453125 6 C 14.898438 5.472656 7.558594 6.550781 9.304688 13.621094 C 9.304688 13.621094 11.015625 9.394531 15.546875 9.023438 L 15.855469 7.195312 " fill-opacity="1" fillRule="nonzero"/></svg>