<svg xmlns="http://www.w3.org/2000/svg" xmlns:xlink="http://www.w3.org/1999/xlink" width="40" zoomAndPan="magnify" viewBox="0 0 30 30.000001" height="40" preserveAspectRatio="xMidYMid meet" version="1.0"><defs><clipPath id="6af3dc38c8"><path d="M 0.484375 0 L 29.515625 0 L 29.515625 29 L 0.484375 29 Z M 0.484375 0 " clip-rule="nonzero"/></clipPath><clipPath id="5521c72d6a"><path d="M 6 20 L 24 20 L 24 29.03125 L 6 29.03125 Z M 6 20 " clip-rule="nonzero"/></clipPath></defs><g clip-path="url(#6af3dc38c8)"><path fill="#7640a3" d="M 0.492188 14.171875 C 0.492188 22.203125 6.988281 28.710938 15.003906 28.710938 C 23.019531 28.710938 29.515625 22.203125 29.515625 14.171875 C 29.515625 6.140625 23.019531 -0.371094 15.003906 -0.371094 C 6.988281 -0.371094 0.492188 6.140625 0.492188 14.171875 " fill-opacity="1" fillRule="nonzero"/></g><path fill="#331520" d="M 23.953125 10.828125 C 23.878906 10.65625 23.792969 10.484375 23.695312 10.304688 C 23.511719 9.957031 23.257812 9.652344 23.222656 9.25 C 23.191406 8.878906 23.363281 8.523438 23.363281 8.144531 C 23.363281 7.152344 22.859375 6.734375 22.160156 6.195312 C 21.507812 5.695312 21.652344 4.660156 21.003906 4.121094 C 20.667969 3.84375 20.382812 3.953125 20.046875 3.777344 C 19.761719 3.625 19.496094 3.1875 19.214844 2.988281 C 18.460938 2.460938 18.136719 2.710938 17.3125 2.863281 C 16.570312 3.003906 15.980469 2.515625 15.277344 2.34375 C 14.476562 2.144531 13.785156 2.375 13.015625 2.574219 C 12.269531 2.765625 11.410156 2.410156 10.703125 2.6875 C 10.019531 2.957031 9.847656 3.898438 9.511719 4.445312 C 9.066406 5.183594 8.078125 5.492188 7.46875 6.066406 C 7.078125 6.4375 7.125 6.613281 7.054688 7.074219 C 7 7.449219 6.8125 7.753906 6.628906 8.09375 C 6.273438 8.742188 5.898438 9.53125 6.257812 10.273438 C 6.417969 10.605469 6.601562 10.699219 6.640625 11.105469 C 6.675781 11.484375 6.570312 11.867188 6.503906 12.214844 C 6.410156 12.703125 6.40625 12.910156 6.683594 13.328125 C 6.90625 13.664062 7.003906 13.847656 7.089844 14.253906 C 7.160156 14.589844 7.207031 14.96875 7.480469 15.210938 C 7.800781 15.492188 8.035156 15.457031 8.242188 15.882812 C 8.628906 16.667969 8.675781 17.207031 9.550781 17.585938 C 10.210938 17.875 10.355469 18.722656 11.074219 18.835938 C 11.878906 18.960938 12.492188 18.757812 13.246094 19.125 C 13.601562 19.296875 13.886719 19.402344 14.261719 19.480469 C 15.722656 19.785156 17.195312 19.792969 18.546875 19 C 19.175781 18.632812 20 18.511719 20.222656 17.722656 C 20.445312 16.9375 21.089844 16.734375 21.699219 16.242188 C 22.300781 15.753906 22.597656 15.246094 22.632812 14.566406 C 22.675781 13.746094 23.558594 13.210938 23.949219 12.492188 C 24.273438 11.898438 24.1875 11.371094 23.953125 10.828125 " fill-opacity="1" fillRule="nonzero"/><g clip-path="url(#5521c72d6a)"><path fill="#ffffff" d="M 23.472656 28.753906 C 22.753906 29.289062 21.980469 29.757812 21.167969 30.152344 C 21.042969 30.214844 20.921875 30.269531 20.796875 30.328125 C 19.027344 31.121094 17.066406 31.5625 15.003906 31.5625 C 12.941406 31.5625 10.984375 31.121094 9.214844 30.328125 C 9.089844 30.269531 8.964844 30.214844 8.839844 30.152344 C 8.027344 29.757812 7.257812 29.289062 6.539062 28.753906 C 6.664062 25.941406 8.15625 23.484375 10.363281 22.035156 C 11.695312 21.160156 13.289062 20.648438 15.003906 20.648438 C 15.265625 20.648438 15.523438 20.660156 15.777344 20.683594 C 17.199219 20.8125 18.515625 21.292969 19.648438 22.035156 C 20.664062 22.703125 21.527344 23.582031 22.175781 24.613281 C 22.9375 25.820312 23.402344 27.234375 23.472656 28.753906 " fill-opacity="1" fillRule="nonzero"/></g><path fill="#ba5c21" d="M 19.648438 22.035156 C 19.515625 23.015625 19.085938 23.902344 18.449219 24.59375 C 17.589844 25.523438 16.367188 26.105469 15.003906 26.105469 C 12.824219 26.105469 10.988281 24.609375 10.46875 22.585938 C 10.421875 22.40625 10.386719 22.222656 10.363281 22.035156 C 11.695312 21.160156 13.289062 20.648438 15.003906 20.648438 C 15.265625 20.648438 15.523438 20.660156 15.78125 20.683594 C 15.824219 20.6875 15.867188 20.691406 15.910156 20.699219 C 15.941406 20.699219 15.96875 20.703125 15.996094 20.707031 C 16.023438 20.710938 16.054688 20.714844 16.085938 20.71875 C 16.101562 20.71875 16.121094 20.722656 16.140625 20.726562 C 16.167969 20.726562 16.195312 20.734375 16.222656 20.734375 C 16.246094 20.738281 16.265625 20.742188 16.289062 20.746094 C 16.304688 20.75 16.324219 20.75 16.34375 20.753906 C 16.375 20.757812 16.40625 20.765625 16.4375 20.769531 C 16.570312 20.792969 16.707031 20.820312 16.835938 20.847656 L 16.925781 20.867188 C 16.941406 20.871094 16.960938 20.875 16.976562 20.878906 C 17.007812 20.886719 17.042969 20.894531 17.070312 20.902344 C 17.078125 20.90625 17.082031 20.90625 17.085938 20.90625 C 17.125 20.917969 17.164062 20.925781 17.203125 20.9375 C 17.246094 20.949219 17.289062 20.960938 17.328125 20.972656 C 17.375 20.984375 17.421875 21 17.46875 21.011719 C 17.503906 21.023438 17.539062 21.035156 17.578125 21.046875 C 17.601562 21.054688 17.625 21.0625 17.644531 21.070312 C 17.683594 21.082031 17.722656 21.09375 17.757812 21.109375 C 17.804688 21.125 17.851562 21.140625 17.894531 21.15625 C 17.898438 21.15625 17.902344 21.160156 17.90625 21.160156 C 17.953125 21.175781 18 21.195312 18.042969 21.210938 C 18.078125 21.226562 18.113281 21.238281 18.148438 21.253906 C 18.242188 21.289062 18.328125 21.328125 18.417969 21.367188 L 18.535156 21.417969 C 18.570312 21.433594 18.605469 21.449219 18.640625 21.46875 C 18.671875 21.484375 18.703125 21.5 18.734375 21.515625 C 18.765625 21.527344 18.792969 21.542969 18.824219 21.558594 C 18.839844 21.566406 18.859375 21.574219 18.878906 21.585938 C 18.957031 21.625 19.03125 21.664062 19.105469 21.707031 C 19.132812 21.722656 19.160156 21.738281 19.183594 21.753906 C 19.203125 21.761719 19.21875 21.769531 19.234375 21.78125 L 19.296875 21.816406 L 19.363281 21.855469 L 19.402344 21.882812 C 19.441406 21.90625 19.480469 21.929688 19.519531 21.953125 C 19.5625 21.980469 19.605469 22.007812 19.648438 22.035156 " fill-opacity="1" fillRule="nonzero"/><path fill="#ba5c21" d="M 16.636719 18.746094 L 16.636719 21.964844 C 16.636719 22.777344 15.972656 23.445312 15.160156 23.445312 L 14.847656 23.445312 C 14.039062 23.445312 13.375 22.777344 13.375 21.964844 L 13.375 18.746094 C 13.375 17.933594 14.039062 17.265625 14.847656 17.265625 L 15.160156 17.265625 C 15.972656 17.265625 16.636719 17.933594 16.636719 18.746094 " fill-opacity="1" fillRule="nonzero"/><path fill="#9e392b" d="M 16.636719 18.746094 L 16.636719 20.449219 C 16.152344 20.71875 15.636719 20.875 15.113281 20.875 C 14.5 20.875 13.910156 20.703125 13.375 20.40625 L 13.375 18.746094 C 13.375 17.933594 14.039062 17.265625 14.847656 17.265625 L 15.160156 17.265625 C 15.972656 17.265625 16.636719 17.933594 16.636719 18.746094 " fill-opacity="1" fillRule="nonzero"/><path fill="#ba5c21" d="M 20.035156 16.753906 C 20.035156 16.753906 21.003906 16.421875 21.621094 15.34375 C 22.289062 14.171875 21.867188 13.441406 21.734375 13.28125 C 21.371094 12.847656 20.8125 13.128906 20.71875 13.28125 C 20.625 13.4375 19.289062 15.871094 20.035156 16.753906 " fill-opacity="1" fillRule="nonzero"/><path fill="#9e392b" d="M 20.984375 13.664062 C 20.984375 13.664062 21.597656 13.746094 21.382812 14.609375 C 21.164062 15.472656 20.597656 15.816406 19.828125 16.257812 C 19.058594 16.699219 20.214844 13.839844 20.984375 13.664062 " fill-opacity="1" fillRule="nonzero"/><path fill="#ba5c21" d="M 10.226562 16.753906 C 10.226562 16.753906 9.257812 16.421875 8.640625 15.34375 C 7.96875 14.171875 8.390625 13.441406 8.523438 13.28125 C 8.886719 12.847656 9.449219 13.128906 9.539062 13.28125 C 9.632812 13.4375 10.972656 15.871094 10.226562 16.753906 " fill-opacity="1" fillRule="nonzero"/><path fill="#9e392b" d="M 9.277344 13.664062 C 9.277344 13.664062 8.664062 13.746094 8.878906 14.609375 C 9.09375 15.472656 9.664062 15.816406 10.433594 16.257812 C 11.203125 16.699219 10.046875 13.839844 9.277344 13.664062 " fill-opacity="1" fillRule="nonzero"/><path fill="#ba5c21" d="M 20.984375 13.09375 C 20.984375 9.546875 18.367188 6.667969 15.144531 6.667969 C 11.917969 6.667969 9.304688 9.546875 9.304688 13.09375 C 9.304688 16.644531 11.917969 20.355469 15.144531 20.355469 C 18.171875 20.355469 20.984375 16.613281 20.984375 13.09375 " fill-opacity="1" fillRule="nonzero"/><path fill="#331520" d="M 15.90625 6.667969 C 15.90625 6.667969 16.0625 6 15.507812 5.472656 C 14.953125 4.949219 7.613281 6.027344 9.355469 13.09375 C 9.355469 13.09375 11.066406 8.867188 15.601562 8.496094 L 15.90625 6.667969 " fill-opacity="1" fillRule="nonzero"/><path fill="#331520" d="M 14.46875 6.667969 C 14.46875 6.667969 14.3125 6 14.867188 5.472656 C 15.421875 4.949219 22.761719 6.027344 21.019531 13.09375 C 21.019531 13.09375 19.308594 8.867188 14.777344 8.496094 L 14.46875 6.667969 " fill-opacity="1" fillRule="nonzero"/></svg>