<svg xmlns="http://www.w3.org/2000/svg" xmlns:xlink="http://www.w3.org/1999/xlink" width="40" zoomAndPan="magnify" viewBox="0 0 30 30.000001" height="40" preserveAspectRatio="xMidYMid meet" version="1.0"><defs><clipPath id="141fda4f51"><path d="M 0.484375 0 L 29.515625 0 L 29.515625 29.03125 L 0.484375 29.03125 Z M 0.484375 0 " clip-rule="nonzero"/></clipPath><clipPath id="fcb0bf96e8"><path d="M 6 21 L 24 21 L 24 29.03125 L 6 29.03125 Z M 6 21 " clip-rule="nonzero"/></clipPath></defs><g clip-path="url(#141fda4f51)"><path fill="#78d1cc" d="M 29.515625 14.546875 C 29.515625 22.578125 23.019531 29.089844 15.003906 29.089844 C 6.988281 29.089844 0.492188 22.578125 0.492188 14.546875 C 0.492188 6.515625 6.988281 0.00390625 15.003906 0.00390625 C 23.019531 0.00390625 29.515625 6.515625 29.515625 14.546875 " fill-opacity="1" fillRule="nonzero"/></g><path fill="#ed451d" d="M 15.089844 27.023438 C 14.207031 27.023438 13.328125 26.855469 12.5 26.550781 C 11.859375 26.3125 11.246094 25.800781 10.542969 25.839844 C 9.257812 25.910156 7.59375 26.023438 7.132812 24.429688 C 6.675781 22.851562 8.398438 21.832031 8.53125 20.359375 C 8.652344 18.996094 6.550781 18.648438 7.105469 17.160156 C 7.226562 16.835938 7.5 16.542969 7.546875 16.1875 C 7.601562 15.792969 7.433594 15.453125 7.371094 15.078125 C 7.167969 13.820312 8.171875 12.074219 9.183594 11.378906 C 10.527344 10.457031 12.195312 10.238281 13.761719 9.9375 C 15.816406 9.542969 18.046875 8.949219 19.984375 9.800781 C 21.070312 10.277344 22.425781 10.738281 22.773438 11.964844 C 23.144531 13.265625 23.632812 14.585938 22.882812 15.855469 C 22.460938 16.570312 21.730469 16.875 22.007812 17.773438 C 22.214844 18.4375 22.910156 18.832031 23.078125 19.523438 C 23.460938 21.085938 21.160156 21.46875 21.796875 22.9375 C 22.125 23.695312 22.59375 24.136719 22.296875 25.035156 C 22.082031 25.6875 21.527344 26.007812 20.863281 26.050781 C 20.351562 26.082031 19.863281 25.902344 19.34375 25.992188 C 18.980469 26.054688 18.691406 26.222656 18.359375 26.359375 C 17.335938 26.777344 16.195312 27.023438 15.089844 27.023438 " fill-opacity="1" fillRule="nonzero"/><g clip-path="url(#fcb0bf96e8)"><path fill="#ffffff" d="M 23.472656 29.128906 C 22.753906 29.664062 21.980469 30.136719 21.167969 30.527344 C 21.042969 30.589844 20.921875 30.648438 20.796875 30.703125 C 19.027344 31.496094 17.066406 31.9375 15.003906 31.9375 C 12.941406 31.9375 10.984375 31.496094 9.214844 30.703125 C 9.089844 30.648438 8.964844 30.589844 8.839844 30.527344 C 8.027344 30.132812 7.257812 29.664062 6.539062 29.128906 C 6.664062 26.316406 8.15625 23.863281 10.363281 22.410156 C 11.695312 21.535156 13.289062 21.023438 15.003906 21.023438 C 15.265625 21.023438 15.523438 21.039062 15.777344 21.058594 C 17.199219 21.1875 18.515625 21.667969 19.648438 22.410156 C 20.664062 23.078125 21.527344 23.960938 22.175781 24.988281 C 22.9375 26.199219 23.402344 27.613281 23.472656 29.128906 " fill-opacity="1" fillRule="nonzero"/></g><path fill="#fbd5c0" d="M 19.648438 22.410156 C 19.515625 23.390625 19.085938 24.277344 18.449219 24.96875 C 17.589844 25.898438 16.367188 26.480469 15.003906 26.480469 C 12.824219 26.480469 10.988281 24.988281 10.46875 22.960938 C 10.421875 22.78125 10.386719 22.597656 10.363281 22.410156 C 11.695312 21.535156 13.289062 21.023438 15.003906 21.023438 C 15.265625 21.023438 15.523438 21.035156 15.78125 21.058594 C 15.824219 21.0625 15.867188 21.070312 15.910156 21.074219 C 15.941406 21.074219 15.96875 21.078125 15.996094 21.082031 C 16.023438 21.085938 16.054688 21.089844 16.085938 21.09375 C 16.101562 21.09375 16.121094 21.097656 16.140625 21.101562 C 16.167969 21.105469 16.195312 21.109375 16.222656 21.113281 C 16.246094 21.113281 16.265625 21.117188 16.289062 21.121094 C 16.304688 21.125 16.324219 21.128906 16.34375 21.128906 C 16.375 21.136719 16.40625 21.140625 16.4375 21.144531 C 16.570312 21.167969 16.707031 21.195312 16.835938 21.222656 L 16.925781 21.242188 C 16.941406 21.25 16.960938 21.253906 16.976562 21.257812 C 17.007812 21.265625 17.042969 21.273438 17.070312 21.28125 C 17.078125 21.28125 17.082031 21.28125 17.085938 21.28125 C 17.125 21.292969 17.164062 21.304688 17.203125 21.3125 C 17.246094 21.324219 17.289062 21.335938 17.328125 21.347656 C 17.375 21.359375 17.421875 21.375 17.46875 21.390625 C 17.503906 21.398438 17.539062 21.410156 17.578125 21.421875 C 17.601562 21.429688 17.625 21.4375 17.644531 21.445312 C 17.683594 21.457031 17.722656 21.46875 17.757812 21.484375 C 17.804688 21.5 17.851562 21.515625 17.894531 21.53125 C 17.898438 21.535156 17.902344 21.535156 17.90625 21.535156 C 17.953125 21.550781 18 21.570312 18.042969 21.585938 C 18.078125 21.601562 18.113281 21.613281 18.148438 21.628906 C 18.242188 21.664062 18.328125 21.703125 18.417969 21.742188 L 18.535156 21.792969 C 18.570312 21.808594 18.605469 21.828125 18.640625 21.84375 C 18.671875 21.859375 18.703125 21.875 18.734375 21.890625 C 18.765625 21.902344 18.792969 21.917969 18.824219 21.933594 C 18.839844 21.941406 18.859375 21.953125 18.878906 21.960938 C 18.957031 22 19.03125 22.042969 19.105469 22.082031 C 19.132812 22.097656 19.160156 22.113281 19.183594 22.128906 C 19.203125 22.136719 19.21875 22.148438 19.234375 22.15625 L 19.296875 22.195312 L 19.363281 22.234375 L 19.402344 22.257812 C 19.441406 22.28125 19.480469 22.304688 19.519531 22.328125 C 19.5625 22.355469 19.605469 22.382812 19.648438 22.410156 " fill-opacity="1" fillRule="nonzero"/><path fill="#fbd5c0" d="M 16.636719 19.121094 L 16.636719 22.339844 C 16.636719 23.152344 15.972656 23.820312 15.160156 23.820312 L 14.847656 23.820312 C 14.039062 23.820312 13.375 23.152344 13.375 22.339844 L 13.375 19.121094 C 13.375 18.308594 14.039062 17.644531 14.847656 17.644531 L 15.160156 17.644531 C 15.972656 17.644531 16.636719 18.308594 16.636719 19.121094 " fill-opacity="1" fillRule="nonzero"/><path fill="#f8a29e" d="M 16.636719 19.121094 L 16.636719 20.824219 C 16.152344 21.09375 15.636719 21.253906 15.113281 21.253906 C 14.5 21.253906 13.910156 21.078125 13.375 20.78125 L 13.375 19.121094 C 13.375 18.308594 14.039062 17.644531 14.847656 17.644531 L 15.160156 17.644531 C 15.972656 17.644531 16.636719 18.308594 16.636719 19.121094 " fill-opacity="1" fillRule="nonzero"/><path fill="#fbd5c0" d="M 20.035156 17.128906 C 20.035156 17.128906 21.003906 16.796875 21.621094 15.71875 C 22.289062 14.546875 21.867188 13.816406 21.734375 13.65625 C 21.371094 13.226562 20.8125 13.503906 20.71875 13.65625 C 20.625 13.8125 19.289062 16.246094 20.035156 17.128906 " fill-opacity="1" fillRule="nonzero"/><path fill="#f8a29e" d="M 20.984375 14.042969 C 20.984375 14.042969 21.597656 14.121094 21.382812 14.984375 C 21.164062 15.847656 20.597656 16.191406 19.828125 16.632812 C 19.058594 17.074219 20.214844 14.21875 20.984375 14.042969 " fill-opacity="1" fillRule="nonzero"/><path fill="#fbd5c0" d="M 10.226562 17.128906 C 10.226562 17.128906 9.257812 16.796875 8.640625 15.71875 C 7.96875 14.546875 8.390625 13.816406 8.523438 13.65625 C 8.886719 13.226562 9.449219 13.503906 9.539062 13.65625 C 9.632812 13.8125 10.972656 16.246094 10.226562 17.128906 " fill-opacity="1" fillRule="nonzero"/><path fill="#f8a29e" d="M 9.277344 14.042969 C 9.277344 14.042969 8.664062 14.121094 8.878906 14.984375 C 9.09375 15.847656 9.664062 16.191406 10.433594 16.632812 C 11.203125 17.074219 10.046875 14.21875 9.277344 14.042969 " fill-opacity="1" fillRule="nonzero"/><path fill="#fbd5c0" d="M 20.984375 13.472656 C 20.984375 9.921875 18.367188 7.042969 15.144531 7.042969 C 11.917969 7.042969 9.304688 9.921875 9.304688 13.472656 C 9.304688 17.019531 11.917969 20.730469 15.144531 20.730469 C 18.171875 20.730469 20.984375 16.992188 20.984375 13.472656 " fill-opacity="1" fillRule="nonzero"/><path fill="#ed451d" d="M 22.492188 12.265625 C 22.761719 11.621094 22.578125 10.839844 22.445312 10.207031 C 22.160156 8.867188 21.285156 7.59375 19.847656 7.300781 C 19.160156 7.160156 18.476562 7.019531 17.863281 6.59375 C 17.300781 6.203125 16.769531 5.679688 16.140625 5.414062 C 14.90625 4.890625 13.296875 5.25 12.972656 6.707031 C 12.960938 6.769531 12.945312 6.835938 12.9375 6.902344 L 12.917969 6.699219 C 12.8125 7.5 12.816406 8.046875 13.296875 8.734375 C 13.792969 9.4375 14.449219 9.574219 15.226562 9.660156 C 16.890625 9.839844 17.253906 10.914062 17.6875 12.300781 C 17.960938 13.1875 18.632812 14.171875 19.664062 13.96875 C 20.144531 13.875 20.566406 13.59375 21.039062 13.492188 C 21.554688 13.378906 21.734375 13.707031 22.101562 14.007812 C 22.097656 13.707031 21.945312 13.328125 22.027344 13.050781 C 22.109375 12.773438 22.378906 12.53125 22.492188 12.265625 " fill-opacity="1" fillRule="nonzero"/><path fill="#ed451d" d="M 13.65625 7.804688 C 13.558594 7.519531 13.359375 7.207031 13.148438 6.976562 C 12.878906 6.675781 12.972656 6.707031 12.640625 6.605469 C 12.042969 6.382812 11.601562 6.25 10.976562 6.617188 C 10.457031 6.921875 10.183594 7.425781 10.042969 7.984375 C 9.863281 8.707031 9.683594 9.054688 9.082031 9.570312 C 8.605469 9.976562 8.277344 10.46875 8.054688 11.050781 C 7.792969 11.726562 7.625 12.53125 7.652344 13.273438 C 7.667969 13.765625 7.792969 14.84375 8.148438 15.164062 C 8.234375 14.375 8.464844 13.933594 9.257812 13.726562 C 9.929688 13.546875 10.507812 13.453125 10.699219 12.671875 C 10.875 11.964844 10.917969 11.378906 11.578125 10.875 C 12.121094 10.460938 12.882812 10.316406 13.34375 9.804688 C 13.820312 9.265625 13.886719 8.464844 13.65625 7.804688 " fill-opacity="1" fillRule="nonzero"/></svg>