<svg xmlns="http://www.w3.org/2000/svg" xmlns:xlink="http://www.w3.org/1999/xlink" width="40" zoomAndPan="magnify" viewBox="0 0 30 30.000001" height="40" preserveAspectRatio="xMidYMid meet" version="1.0"><defs><clipPath id="96650fddaf"><path d="M 0.484375 0 L 29.515625 0 L 29.515625 29.03125 L 0.484375 29.03125 Z M 0.484375 0 " clip-rule="nonzero"/></clipPath><clipPath id="a97cee0997"><path d="M 6 21 L 24 21 L 24 29.03125 L 6 29.03125 Z M 6 21 " clip-rule="nonzero"/></clipPath></defs><g clip-path="url(#96650fddaf)"><path fill="#eec124" d="M 29.515625 14.546875 C 29.515625 22.578125 23.019531 29.089844 15.003906 29.089844 C 6.988281 29.089844 0.492188 22.578125 0.492188 14.546875 C 0.492188 6.515625 6.988281 0.00390625 15.003906 0.00390625 C 23.019531 0.00390625 29.515625 6.515625 29.515625 14.546875 " fill-opacity="1" fillRule="nonzero"/></g><path fill="#3f2463" d="M 21.425781 11.773438 C 21.425781 11.773438 20.691406 19.058594 23.183594 19.152344 C 23.183594 19.152344 20.898438 23.226562 15.144531 22.4375 L 15.144531 11.003906 L 21.425781 11.773438 " fill-opacity="1" fillRule="nonzero"/><path fill="#3f2463" d="M 9.046875 11.773438 C 9.046875 11.773438 9.785156 19.058594 7.289062 19.152344 C 7.289062 19.152344 9.574219 23.226562 15.332031 22.4375 L 15.332031 11.003906 L 9.046875 11.773438 " fill-opacity="1" fillRule="nonzero"/><g clip-path="url(#a97cee0997)"><path fill="#ffffff" d="M 23.46875 29.128906 C 22.753906 29.664062 21.980469 30.136719 21.167969 30.527344 C 21.042969 30.589844 20.917969 30.648438 20.796875 30.703125 C 19.027344 31.496094 17.066406 31.9375 15.003906 31.9375 C 12.941406 31.9375 10.984375 31.496094 9.214844 30.703125 C 9.089844 30.648438 8.964844 30.589844 8.839844 30.527344 C 8.027344 30.132812 7.257812 29.664062 6.539062 29.128906 C 6.664062 26.316406 8.15625 23.863281 10.363281 22.410156 C 11.695312 21.535156 13.289062 21.023438 15.003906 21.023438 C 15.265625 21.023438 15.523438 21.039062 15.777344 21.058594 C 17.199219 21.1875 18.515625 21.667969 19.648438 22.410156 C 20.664062 23.078125 21.527344 23.960938 22.175781 24.988281 C 22.9375 26.199219 23.402344 27.613281 23.46875 29.128906 " fill-opacity="1" fillRule="nonzero"/></g><path fill="#f79b68" d="M 19.648438 22.410156 C 19.515625 23.390625 19.085938 24.277344 18.449219 24.96875 C 17.589844 25.898438 16.367188 26.480469 15.003906 26.480469 C 12.824219 26.480469 10.988281 24.988281 10.46875 22.960938 C 10.421875 22.78125 10.386719 22.597656 10.363281 22.410156 C 11.695312 21.535156 13.289062 21.023438 15.003906 21.023438 C 15.265625 21.023438 15.523438 21.035156 15.78125 21.058594 C 15.824219 21.0625 15.867188 21.070312 15.910156 21.074219 C 15.941406 21.074219 15.96875 21.078125 15.996094 21.082031 C 16.023438 21.085938 16.054688 21.089844 16.085938 21.09375 C 16.101562 21.09375 16.121094 21.097656 16.140625 21.101562 C 16.167969 21.105469 16.195312 21.109375 16.222656 21.113281 C 16.246094 21.113281 16.265625 21.117188 16.289062 21.121094 C 16.304688 21.125 16.324219 21.128906 16.34375 21.128906 C 16.375 21.136719 16.40625 21.140625 16.4375 21.144531 C 16.570312 21.167969 16.707031 21.195312 16.835938 21.222656 L 16.925781 21.242188 C 16.941406 21.25 16.960938 21.253906 16.976562 21.257812 C 17.007812 21.265625 17.042969 21.273438 17.070312 21.28125 C 17.078125 21.28125 17.082031 21.28125 17.085938 21.28125 C 17.125 21.292969 17.164062 21.304688 17.203125 21.3125 C 17.246094 21.324219 17.289062 21.335938 17.328125 21.347656 C 17.375 21.359375 17.421875 21.375 17.46875 21.390625 C 17.503906 21.398438 17.539062 21.410156 17.578125 21.421875 C 17.601562 21.429688 17.625 21.4375 17.644531 21.445312 C 17.683594 21.457031 17.722656 21.46875 17.757812 21.484375 C 17.804688 21.5 17.851562 21.515625 17.894531 21.53125 C 17.898438 21.535156 17.902344 21.535156 17.90625 21.535156 C 17.953125 21.550781 18 21.570312 18.042969 21.585938 C 18.078125 21.601562 18.113281 21.613281 18.148438 21.628906 C 18.242188 21.664062 18.328125 21.703125 18.417969 21.742188 L 18.535156 21.792969 C 18.570312 21.808594 18.605469 21.828125 18.640625 21.84375 C 18.671875 21.859375 18.703125 21.875 18.734375 21.890625 C 18.765625 21.902344 18.792969 21.917969 18.824219 21.933594 C 18.839844 21.941406 18.859375 21.953125 18.878906 21.960938 C 18.957031 22 19.03125 22.042969 19.105469 22.082031 C 19.132812 22.097656 19.160156 22.113281 19.183594 22.128906 C 19.203125 22.136719 19.21875 22.148438 19.234375 22.15625 L 19.296875 22.195312 L 19.363281 22.234375 L 19.402344 22.257812 C 19.441406 22.28125 19.480469 22.304688 19.519531 22.328125 C 19.5625 22.355469 19.605469 22.382812 19.648438 22.410156 " fill-opacity="1" fillRule="nonzero"/><path fill="#f79b68" d="M 16.636719 19.121094 L 16.636719 22.339844 C 16.636719 23.152344 15.972656 23.820312 15.160156 23.820312 L 14.847656 23.820312 C 14.039062 23.820312 13.375 23.152344 13.375 22.339844 L 13.375 19.121094 C 13.375 18.308594 14.039062 17.644531 14.847656 17.644531 L 15.160156 17.644531 C 15.972656 17.644531 16.636719 18.308594 16.636719 19.121094 " fill-opacity="1" fillRule="nonzero"/><path fill="#f4716d" d="M 16.636719 19.121094 L 16.636719 20.824219 C 16.152344 21.09375 15.636719 21.253906 15.113281 21.253906 C 14.5 21.253906 13.910156 21.078125 13.375 20.78125 L 13.375 19.121094 C 13.375 18.308594 14.039062 17.644531 14.847656 17.644531 L 15.160156 17.644531 C 15.972656 17.644531 16.636719 18.308594 16.636719 19.121094 " fill-opacity="1" fillRule="nonzero"/><path fill="#f79b68" d="M 20.035156 17.128906 C 20.035156 17.128906 21.003906 16.796875 21.621094 15.71875 C 22.289062 14.546875 21.867188 13.816406 21.734375 13.65625 C 21.371094 13.226562 20.8125 13.503906 20.71875 13.65625 C 20.625 13.8125 19.289062 16.246094 20.035156 17.128906 " fill-opacity="1" fillRule="nonzero"/><path fill="#f4716d" d="M 20.984375 14.042969 C 20.984375 14.042969 21.597656 14.121094 21.382812 14.984375 C 21.164062 15.847656 20.597656 16.191406 19.828125 16.632812 C 19.058594 17.074219 20.214844 14.21875 20.984375 14.042969 " fill-opacity="1" fillRule="nonzero"/><path fill="#f79b68" d="M 10.226562 17.128906 C 10.226562 17.128906 9.257812 16.796875 8.640625 15.71875 C 7.96875 14.546875 8.390625 13.816406 8.523438 13.65625 C 8.886719 13.226562 9.449219 13.503906 9.539062 13.65625 C 9.632812 13.8125 10.972656 16.246094 10.226562 17.128906 " fill-opacity="1" fillRule="nonzero"/><path fill="#f4716d" d="M 9.277344 14.042969 C 9.277344 14.042969 8.664062 14.121094 8.878906 14.984375 C 9.09375 15.847656 9.664062 16.191406 10.433594 16.632812 C 11.203125 17.074219 10.046875 14.21875 9.277344 14.042969 " fill-opacity="1" fillRule="nonzero"/><path fill="#f79b68" d="M 20.984375 13.472656 C 20.984375 9.921875 18.367188 7.042969 15.144531 7.042969 C 11.917969 7.042969 9.304688 9.921875 9.304688 13.472656 C 9.304688 17.019531 11.917969 20.730469 15.144531 20.730469 C 18.171875 20.730469 20.984375 16.992188 20.984375 13.472656 " fill-opacity="1" fillRule="nonzero"/><path fill="#3f2463" d="M 15.667969 10.878906 C 15.667969 10.878906 16.765625 14.421875 20.898438 14.070312 C 20.898438 14.070312 21.621094 13.023438 21.378906 10.753906 C 21.101562 8.191406 18.835938 6.035156 15.144531 6.804688 C 15.144531 6.804688 14.804688 8.625 15.667969 10.878906 " fill-opacity="1" fillRule="nonzero"/><path fill="#3f2463" d="M 15.855469 7.042969 C 15.855469 7.042969 16.007812 6.375 15.453125 5.847656 C 14.898438 5.324219 7.558594 6.402344 9.304688 13.472656 C 9.304688 13.472656 11.015625 9.242188 15.546875 8.875 L 15.855469 7.042969 " fill-opacity="1" fillRule="nonzero"/></svg>