<svg xmlns="http://www.w3.org/2000/svg" xmlns:xlink="http://www.w3.org/1999/xlink" width="1920" zoomAndPan="magnify" viewBox="0 0 1440 959.999988" height="1280" preserveAspectRatio="xMidYMid meet" version="1.0"><defs><filter x="0%" y="0%" width="100%" height="100%" id="7ad2220f8b"><feColorMatrix values="0 0 0 0 1 0 0 0 0 1 0 0 0 0 1 0 0 0 1 0" color-interpolation-filters="sRGB"/></filter><mask id="1043a06907"><g filter="url(#7ad2220f8b)"><rect x="-144" width="1728" fill="#000000" y="-95.999999" height="1151.999986" fill-opacity="0.098"/></g></mask><clipPath id="529160db0d"><path d="M 0.839844 0 L 489.839844 0 L 489.839844 496.390625 L 0.839844 496.390625 Z M 0.839844 0 " clip-rule="nonzero"/></clipPath><clipPath id="7e80a416dd"><rect x="0" width="491" y="0" height="497"/></clipPath><mask id="7dc7fa9df1"><g filter="url(#7ad2220f8b)"><rect x="-144" width="1728" fill="#000000" y="-95.999999" height="1151.999986" fill-opacity="0.098"/></g></mask><clipPath id="cf3bcb47d6"><path d="M 124 0 L 366.238281 0 L 366.238281 672 L 124 672 Z M 124 0 " clip-rule="nonzero"/></clipPath><clipPath id="efe4940ba2"><path d="M 0 98 L 216 98 L 216 493 L 0 493 Z M 0 98 " clip-rule="nonzero"/></clipPath><clipPath id="cde1cd4f76"><rect x="0" width="367" y="0" height="673"/></clipPath><mask id="906231669d"><g filter="url(#7ad2220f8b)"><rect x="-144" width="1728" fill="#000000" y="-95.999999" height="1151.999986" fill-opacity="0.098"/></g></mask><clipPath id="093b135e37"><path d="M 0 0.519531 L 413.472656 0.519531 L 413.472656 373 L 0 373 Z M 0 0.519531 " clip-rule="nonzero"/></clipPath><clipPath id="efedc8a5d8"><rect x="0" width="414" y="0" height="373"/></clipPath><mask id="6cd3d940b2"><g filter="url(#7ad2220f8b)"><rect x="-144" width="1728" fill="#000000" y="-95.999999" height="1151.999986" fill-opacity="0.098"/></g></mask><clipPath id="6795558e06"><path d="M 0.527344 0 L 203.621094 0 L 203.621094 160 L 0.527344 160 Z M 0.527344 0 " clip-rule="nonzero"/></clipPath><clipPath id="c22661a9fc"><rect x="0" width="326" y="0" height="162"/></clipPath><mask id="011ee54741"><g filter="url(#7ad2220f8b)"><rect x="-144" width="1728" fill="#000000" y="-95.999999" height="1151.999986" fill-opacity="0.098"/></g></mask><clipPath id="e8638d581a"><path d="M 0.242188 0.429688 L 503.960938 0.429688 L 503.960938 817 L 0.242188 817 Z M 0.242188 0.429688 " clip-rule="nonzero"/></clipPath><clipPath id="7c4360b316"><rect x="0" width="505" y="0" height="817"/></clipPath><mask id="0ec472ccd9"><g filter="url(#7ad2220f8b)"><rect x="-144" width="1728" fill="#000000" y="-95.999999" height="1151.999986" fill-opacity="0.098"/></g></mask><clipPath id="73b9236c59"><path d="M 1 0 L 561 0 L 561 316.878906 L 1 316.878906 Z M 1 0 " clip-rule="nonzero"/></clipPath><clipPath id="8a2abf2267"><rect x="0" width="562" y="0" height="318"/></clipPath><mask id="2a49c918c8"><g filter="url(#7ad2220f8b)"><rect x="-144" width="1728" fill="#000000" y="-95.999999" height="1151.999986" fill-opacity="0.098"/></g></mask><clipPath id="88cfa68791"><path d="M 0.550781 0.171875 L 384.550781 0.171875 L 384.550781 384.171875 L 0.550781 384.171875 Z M 0.550781 0.171875 " clip-rule="nonzero"/></clipPath><clipPath id="a823aa2635"><rect x="0" width="385" y="0" height="385"/></clipPath><mask id="f9a6f739a1"><g filter="url(#7ad2220f8b)"><rect x="-144" width="1728" fill="#000000" y="-95.999999" height="1151.999986" fill-opacity="0.098"/></g></mask><clipPath id="08dc1947ef"><path d="M 0.195312 0.976562 L 384.195312 0.976562 L 384.195312 384.976562 L 0.195312 384.976562 Z M 0.195312 0.976562 " clip-rule="nonzero"/></clipPath><clipPath id="a351ec5921"><rect x="0" width="385" y="0" height="386"/></clipPath><mask id="04a9135ef1"><g filter="url(#7ad2220f8b)"><rect x="-144" width="1728" fill="#000000" y="-95.999999" height="1151.999986" fill-opacity="0.098"/></g></mask><clipPath id="00a4deafe7"><path d="M 0.121094 0.609375 L 249 0.609375 L 249 753 L 0.121094 753 Z M 0.121094 0.609375 " clip-rule="nonzero"/></clipPath><clipPath id="cb256d7836"><rect x="0" width="249" y="0" height="753"/></clipPath><mask id="4897504cd6"><g filter="url(#7ad2220f8b)"><rect x="-144" width="1728" fill="#000000" y="-95.999999" height="1151.999986" fill-opacity="0.098"/></g></mask><clipPath id="4de18852fa"><path d="M 0.507812 0.316406 L 203.542969 0.316406 L 203.542969 122.136719 L 0.507812 122.136719 Z M 0.507812 122.136719 L 325.363281 122.136719 L 325.363281 528.316406 L 0.507812 528.316406 Z M 0.507812 122.136719 " clip-rule="nonzero"/></clipPath><clipPath id="7c51182254"><rect x="0" width="326" y="0" height="530"/></clipPath><mask id="a18e589d82"><g filter="url(#7ad2220f8b)"><rect x="-144" width="1728" fill="#000000" y="-95.999999" height="1151.999986" fill-opacity="0.098"/></g></mask><clipPath id="95b4689613"><path d="M 1 0 L 118 0 L 118 377.976562 L 1 377.976562 Z M 1 0 " clip-rule="nonzero"/></clipPath><clipPath id="62a554471d"><rect x="0" width="118" y="0" height="380"/></clipPath><mask id="24b38319a8"><g filter="url(#7ad2220f8b)"><rect x="-144" width="1728" fill="#000000" y="-95.999999" height="1151.999986" fill-opacity="0.098"/></g></mask><clipPath id="1aca05a98f"><path d="M 0.203125 0.976562 L 324.757812 0.976562 L 324.757812 204.070312 L 0.203125 204.070312 Z M 0.203125 204.070312 L 203.296875 204.070312 L 203.296875 528.976562 L 0.203125 528.976562 Z M 0.203125 204.070312 " clip-rule="nonzero"/></clipPath><clipPath id="497d009e5d"><rect x="0" width="326" y="0" height="530"/></clipPath></defs><rect x="-144" width="1728" fill="#ffffff" y="-95.999999" height="1151.999986" fill-opacity="1"/><rect x="-144" width="1728" fill="#ffffff" y="-95.999999" height="1151.999986" fill-opacity="1"/><rect x="-144" width="1728" fill="#dbe7eb" y="-95.999999" height="1151.999986" fill-opacity="1"/><g mask="url(#1043a06907)"><g transform="matrix(1, 0, 0, 1, 6, -0.000000000000026998)"><g clip-path="url(#7e80a416dd)"><g clip-path="url(#529160db0d)"><path fill="#cd9e56" d="M 415.335938 410.988281 L 301.046875 398.648438 L 304.339844 496.007812 L 77.8125 440.882812 L 0.839844 -81.84375 L 205.824219 -57.023438 L 205.824219 -95.007812 L 489.839844 -175.226562 Z M 415.335938 410.988281 " fill-opacity="1" fillRule="nonzero"/></g></g></g></g><g mask="url(#7dc7fa9df1)"><g transform="matrix(1, 0, 0, 1, 0, -0.000000000000026998)"><g clip-path="url(#cde1cd4f76)"><g clip-path="url(#cf3bcb47d6)"><path fill="#3c577b" d="M 366.074219 359.601562 L 124.273438 359.601562 L 124.273438 58.050781 L 366.074219 0 Z M 137.316406 672 L 334.859375 672 L 334.859375 512.648438 L 169.410156 487.140625 Z M 137.316406 672 " fill-opacity="1" fillRule="nonzero"/></g><g clip-path="url(#efe4940ba2)"><path fill="#a6a6a6" d="M 215.277344 465.152344 L -27.984375 492.710938 L -2.925781 98.804688 L 207.511719 147.621094 Z M 215.277344 465.152344 " fill-opacity="1" fillRule="nonzero"/></g></g></g></g><g mask="url(#906231669d)"><g transform="matrix(1, 0, 0, 1, 0, 587)"><g clip-path="url(#efedc8a5d8)"><g clip-path="url(#093b135e37)"><path fill="#cd9e56" d="M -1.023438 586.914062 L 113.265625 574.574219 L 109.972656 671.933594 L 336.5 616.808594 L 413.472656 94.082031 L 208.488281 118.902344 L 208.488281 80.917969 L -75.527344 0.699219 Z M -1.023438 586.914062 " fill-opacity="1" fillRule="nonzero"/></g></g></g></g><g mask="url(#6cd3d940b2)"><g transform="matrix(1, 0, 0, 1, 626, -0.000000000000026998)"><g clip-path="url(#c22661a9fc)"><g clip-path="url(#6795558e06)"><path fill="#c7cdcf" d="M 0.527344 -367.609375 L 325.429688 -367.609375 L 325.429688 159.925781 L 0.527344 159.925781 Z M 0.527344 -367.609375 " fill-opacity="1" fillRule="nonzero"/></g></g></g></g><g mask="url(#011ee54741)"><g transform="matrix(1, 0, 0, 1, 473, 143)"><g clip-path="url(#7c4360b316)"><g clip-path="url(#e8638d581a)"><path fill="#3c577b" d="M 171.832031 497.769531 L 169.5 591.75 L 0.429688 617.757812 L 0.429688 838.179688 L 273.667969 838.179688 L 245.519531 676.226562 L 504.058594 705.460938 L 469.453125 160.769531 L 334.808594 191.976562 L 334.808594 80.777344 L 0.609375 0.429688 L 0.609375 497.769531 Z M 171.832031 497.769531 " fill-opacity="1" fillRule="nonzero"/></g></g></g></g><g mask="url(#0ec472ccd9)"><g transform="matrix(1, 0, 0, 1, 747, -0.000000000000026998)"><g clip-path="url(#8a2abf2267)"><g clip-path="url(#73b9236c59)"><path fill="#3c577b" d="M 523.507812 236.832031 L 383.695312 228.714844 L 394.144531 287.121094 L 60.65625 316.878906 L 77.871094 197.117188 L 137.019531 197.117188 L 119.554688 110.429688 L 37.414062 114.855469 L 1.015625 -67.121094 L 454.769531 -34.539062 L 439.769531 34.8125 L 560.890625 25.21875 Z M 523.507812 236.832031 " fill-opacity="1" fillRule="nonzero"/></g></g></g></g><g mask="url(#2a49c918c8)"><g transform="matrix(1, 0, 0, 1, 693, 561)"><g clip-path="url(#a823aa2635)"><g clip-path="url(#88cfa68791)"><path fill="#cd9e56" d="M 218.414062 0.171875 L 0.550781 0.171875 L 0.550781 287.777344 L 166.605469 287.777344 L 166.605469 384.171875 L 384.550781 384.171875 L 384.550781 96.5625 L 218.414062 96.5625 Z M 218.414062 0.171875 " fill-opacity="1" fillRule="nonzero"/></g></g></g></g><g mask="url(#f9a6f739a1)"><g transform="matrix(1, 0, 0, 1, 1014, 256)"><g clip-path="url(#a351ec5921)"><g clip-path="url(#08dc1947ef)"><path fill="#cd9e56" d="M 166.332031 0.976562 L 384.195312 0.976562 L 384.195312 288.582031 L 218.140625 288.582031 L 218.140625 384.976562 L 0.195312 384.976562 L 0.195312 97.367188 L 166.332031 97.367188 Z M 166.332031 0.976562 " fill-opacity="1" fillRule="nonzero"/></g></g></g></g><g mask="url(#04a9135ef1)"><g transform="matrix(1, 0, 0, 1, 1191, 207)"><g clip-path="url(#cb256d7836)"><g clip-path="url(#00a4deafe7)"><path fill="#a6a6a6" d="M 638.320312 737.476562 L 514.816406 702.164062 L 515.9375 749.433594 L 270.980469 787.359375 L 270.046875 716.925781 L 156.257812 761.949219 L 135.144531 681.050781 L 49.570312 688.898438 L 0.242188 402.484375 L 62.089844 402.484375 L 0.617188 167.636719 L 230.808594 153.8125 L 264.253906 259 L 262.386719 108.226562 L 498.5625 0.609375 L 503.417969 213.785156 L 526.589844 117.378906 L 770.984375 125.972656 Z M 638.320312 737.476562 " fill-opacity="1" fillRule="nonzero"/></g></g></g></g><g mask="url(#4897504cd6)"><g transform="matrix(1, 0, 0, 1, 865, 59)"><g clip-path="url(#7c51182254)"><g clip-path="url(#4de18852fa)"><path fill="#c7cdcf" d="M 0.507812 0.316406 L 325.363281 0.316406 L 325.363281 528.207031 L 0.507812 528.207031 Z M 0.507812 0.316406 " fill-opacity="1" fillRule="nonzero"/></g></g></g></g><g mask="url(#a18e589d82)"><g transform="matrix(1, 0, 0, 1, 1322, -0.000000000000026998)"><g clip-path="url(#62a554471d)"><g clip-path="url(#95b4689613)"><path fill="#3c577b" d="M 335.316406 35.433594 L 337.660156 130.003906 L 507.734375 156.171875 L 507.734375 377.976562 L 232.875 377.976562 L 261.191406 215.007812 L 1.117188 244.425781 L 35.925781 -303.679688 L 171.375 -272.273438 L 171.375 -384.167969 L 507.554688 -465.023438 L 507.554688 35.433594 Z M 335.316406 35.433594 " fill-opacity="1" fillRule="nonzero"/></g></g></g></g><g mask="url(#24b38319a8)"><g transform="matrix(1, 0, 0, 1, 251, 256)"><g clip-path="url(#497d009e5d)"><g clip-path="url(#1aca05a98f)"><path fill="#c7cdcf" d="M 0.203125 0.976562 L 325.109375 0.976562 L 325.109375 528.511719 L 0.203125 528.511719 Z M 0.203125 0.976562 " fill-opacity="1" fillRule="nonzero"/></g></g></g></g></svg>