<svg xmlns="http://www.w3.org/2000/svg" xmlns:xlink="http://www.w3.org/1999/xlink" width="1080" zoomAndPan="magnify" viewBox="0 0 810 1439.999935" height="1920" preserveAspectRatio="xMidYMid meet" version="1.0"><defs><clipPath id="cc097b42b5"><path d="M 0 0 L 765 0 L 765 1440 L 0 1440 Z M 0 0 " clip-rule="nonzero"/></clipPath><clipPath id="1bb403148d"><path d="M -616.0625 -138.972656 L 764.054688 8.09375 L 593.40625 1609.535156 L -786.710938 1462.472656 Z M -616.0625 -138.972656 " clip-rule="nonzero"/></clipPath><clipPath id="70a3fa0a18"><path d="M 236 0 L 810 0 L 810 1440 L 236 1440 Z M 236 0 " clip-rule="nonzero"/></clipPath><clipPath id="bb061c4e28"><path d="M 359.539062 -192.898438 L 2049.074219 -74.773438 L 1926.132812 1683.667969 L 236.597656 1565.546875 Z M 359.539062 -192.898438 " clip-rule="nonzero"/></clipPath><clipPath id="204cd51d8f"><path d="M 223 0 L 364 0 L 364 1440 L 223 1440 Z M 223 0 " clip-rule="nonzero"/></clipPath><clipPath id="fbfbc6d446"><path d="M 219.914062 1603.753906 L 349.316406 -152.945312 L 367.175781 -151.628906 L 237.777344 1605.066406 Z M 219.914062 1603.753906 " clip-rule="nonzero"/></clipPath><clipPath id="447d9306a8"><path d="M 219.914062 1603.753906 L 349.316406 -152.945312 L 367.175781 -151.628906 L 237.777344 1605.066406 Z M 219.914062 1603.753906 " clip-rule="nonzero"/></clipPath></defs><rect x="-81" width="972" fill="#ffffff" y="-143.999994" height="1727.999922" fill-opacity="1"/><rect x="-81" width="972" fill="#ffffff" y="-143.999994" height="1727.999922" fill-opacity="1"/><rect x="-81" width="972" fill="#ffffff" y="-143.999994" height="1727.999922" fill-opacity="1"/><g clip-path="url(#cc097b42b5)"><g clip-path="url(#1bb403148d)"><path fill="#136386" d="M -616.0625 -138.972656 L 764.054688 8.09375 L 593.40625 1609.535156 L -786.710938 1462.472656 Z M -616.0625 -138.972656 " fill-opacity="1" fillRule="nonzero"/></g></g><g clip-path="url(#70a3fa0a18)"><g clip-path="url(#bb061c4e28)"><path fill="#fec533" d="M 359.539062 -192.898438 L 2049.070312 -74.773438 L 1926.132812 1683.667969 L 236.597656 1565.546875 Z M 359.539062 -192.898438 " fill-opacity="1" fillRule="nonzero"/></g></g><g clip-path="url(#204cd51d8f)"><g clip-path="url(#fbfbc6d446)"><g clip-path="url(#447d9306a8)"><path fill="#f2f4e6" d="M 363.722656 -106.640625 L 240.953125 1560.0625 L 223.175781 1558.75 L 345.945312 -107.953125 L 363.722656 -106.640625 " fill-opacity="1" fillRule="nonzero"/></g></g></g></svg>