<svg xmlns="http://www.w3.org/2000/svg" xmlns:xlink="http://www.w3.org/1999/xlink" width="1920" zoomAndPan="magnify" viewBox="0 0 1440 809.999993" height="1080" preserveAspectRatio="xMidYMid meet" version="1.0"><defs><clipPath id="5915aa28ca"><path d="M 0 0 L 817 0 L 817 810 L 0 810 Z M 0 0 " clip-rule="nonzero"/></clipPath><clipPath id="ba38b191ed"><path d="M 14.488281 -137.886719 L 816.496094 0.273438 L 656.320312 930.0625 L -145.6875 791.902344 Z M 14.488281 -137.886719 " clip-rule="nonzero"/></clipPath><clipPath id="4d18095b0d"><path d="M 449 0 L 1440 0 L 1440 810 L 449 810 Z M 449 0 " clip-rule="nonzero"/></clipPath><clipPath id="154722a011"><path d="M 587.332031 -132.609375 L 1571.429688 0.292969 L 1433.167969 1024.089844 L 449.070312 891.1875 Z M 587.332031 -132.609375 " clip-rule="nonzero"/></clipPath><clipPath id="f4e9db4b90"><path d="M 441 0 L 587 0 L 587 810 L 441 810 Z M 441 0 " clip-rule="nonzero"/></clipPath><clipPath id="3f4a8a9444"><path d="M 437.820312 913.3125 L 579.75 -108.917969 L 590.191406 -107.464844 L 448.261719 914.761719 Z M 437.820312 913.3125 " clip-rule="nonzero"/></clipPath><clipPath id="aaf0331b87"><path d="M 437.820312 913.3125 L 579.75 -108.917969 L 590.191406 -107.464844 L 448.261719 914.761719 Z M 437.820312 913.3125 " clip-rule="nonzero"/></clipPath></defs><rect x="-144" width="1728" fill="#ffffff" y="-80.999999" height="971.999992" fill-opacity="1"/><rect x="-144" width="1728" fill="#ffffff" y="-80.999999" height="971.999992" fill-opacity="1"/><rect x="-144" width="1728" fill="#ffffff" y="-80.999999" height="971.999992" fill-opacity="1"/><g clip-path="url(#5915aa28ca)"><g clip-path="url(#ba38b191ed)"><path fill="#136386" d="M 14.488281 -137.886719 L 816.496094 0.273438 L 656.320312 930.0625 L -145.6875 791.902344 Z M 14.488281 -137.886719 " fill-opacity="1" fillRule="nonzero"/></g></g><g clip-path="url(#4d18095b0d)"><g clip-path="url(#154722a011)"><path fill="#fec533" d="M 587.332031 -132.609375 L 1571.429688 0.292969 L 1433.167969 1024.089844 L 449.070312 891.1875 Z M 587.332031 -132.609375 " fill-opacity="1" fillRule="nonzero"/></g></g><g clip-path="url(#f4e9db4b90)"><g clip-path="url(#3f4a8a9444)"><g clip-path="url(#aaf0331b87)"><path fill="#f2f4e6" d="M 586.390625 -80.679688 L 451.902344 887.953125 L 441.507812 886.511719 L 575.996094 -82.125 L 586.390625 -80.679688 " fill-opacity="1" fillRule="nonzero"/></g></g></g></svg>