<svg xmlns="http://www.w3.org/2000/svg" xmlns:xlink="http://www.w3.org/1999/xlink" width="60" zoomAndPan="magnify" viewBox="0 0 45 44.999999" height="60" preserveAspectRatio="xMidYMid meet" version="1.0"><defs><clipPath id="c52e80a9ec"><path d="M 22.5 0 C 10.074219 0 0 10.074219 0 22.5 C 0 34.925781 10.074219 45 22.5 45 C 34.925781 45 45 34.925781 45 22.5 C 45 10.074219 34.925781 0 22.5 0 " clip-rule="nonzero"/></clipPath><clipPath id="5c5f1c93a9"><path d="M 36 16.109375 L 42.929688 16.109375 L 42.929688 29 L 36 29 Z M 36 16.109375 " clip-rule="nonzero"/></clipPath><clipPath id="8160f16a0b"><path d="M 9.039062 29 L 19 29 L 19 36 L 9.039062 36 Z M 9.039062 29 " clip-rule="nonzero"/></clipPath><clipPath id="8592c900d9"><path d="M 23 22 L 42.929688 22 L 42.929688 36 L 23 36 Z M 23 22 " clip-rule="nonzero"/></clipPath><clipPath id="142f2b54bf"><path d="M 16 34 L 25 34 L 25 42.546875 L 16 42.546875 Z M 16 34 " clip-rule="nonzero"/></clipPath><clipPath id="c2a85f34e6"><path d="M 9.039062 16.109375 L 16 16.109375 L 16 27 L 9.039062 27 Z M 9.039062 16.109375 " clip-rule="nonzero"/></clipPath><clipPath id="e9938b98b9"><path d="M 14 16.109375 L 35 16.109375 L 35 18 L 14 18 Z M 14 16.109375 " clip-rule="nonzero"/></clipPath><clipPath id="780314162e"><path d="M 2.25 16 L 9 16 L 9 28.601562 L 2.25 28.601562 Z M 2.25 16 " clip-rule="nonzero"/></clipPath><clipPath id="208726d0e0"><path d="M 26 9 L 35.949219 9 L 35.949219 16 L 26 16 Z M 26 9 " clip-rule="nonzero"/></clipPath><clipPath id="83551466ab"><path d="M 2.25 9 L 22 9 L 22 23 L 2.25 23 Z M 2.25 9 " clip-rule="nonzero"/></clipPath><clipPath id="ed604bdffd"><path d="M 20 2.453125 L 29 2.453125 L 29 11 L 20 11 Z M 20 2.453125 " clip-rule="nonzero"/></clipPath><clipPath id="e398f029fc"><path d="M 29 18 L 35.949219 18 L 35.949219 28.601562 L 29 28.601562 Z M 29 18 " clip-rule="nonzero"/></clipPath><clipPath id="e0c4a288a2"><path d="M 10 27 L 31 27 L 31 28.601562 L 10 28.601562 Z M 10 27 " clip-rule="nonzero"/></clipPath></defs><g clip-path="url(#c52e80a9ec)"><rect x="-4.5" width="54" fill="#f0f2e4" y="-4.5" height="53.999999" fill-opacity="1"/></g><g clip-path="url(#5c5f1c93a9)"><path fill="#3c577b" d="M 37.183594 17.609375 C 36.984375 17.609375 36.792969 17.53125 36.652344 17.394531 C 36.511719 17.253906 36.433594 17.066406 36.433594 16.871094 C 36.433594 16.675781 36.511719 16.488281 36.652344 16.351562 C 36.792969 16.210938 36.984375 16.132812 37.183594 16.132812 C 37.65625 16.132812 38.125 16.167969 38.589844 16.234375 C 38.972656 16.289062 39.347656 16.378906 39.714844 16.503906 C 39.882812 16.5625 40.046875 16.625 40.210938 16.699219 C 40.363281 16.769531 40.511719 16.847656 40.65625 16.933594 C 40.796875 17.015625 40.929688 17.101562 41.058594 17.199219 C 41.183594 17.292969 41.304688 17.390625 41.417969 17.5 C 41.539062 17.613281 41.65625 17.734375 41.765625 17.863281 C 41.871094 17.992188 41.972656 18.125 42.066406 18.265625 C 42.164062 18.414062 42.25 18.5625 42.328125 18.71875 C 42.410156 18.886719 42.484375 19.054688 42.546875 19.226562 C 42.578125 19.304688 42.605469 19.382812 42.628906 19.464844 C 42.65625 19.546875 42.679688 19.628906 42.703125 19.714844 C 42.777344 20.003906 42.835938 20.296875 42.871094 20.59375 C 42.910156 20.941406 42.929688 21.289062 42.929688 21.636719 L 42.929688 28.050781 C 42.929688 28.25 42.851562 28.4375 42.710938 28.574219 C 42.570312 28.710938 42.378906 28.789062 42.183594 28.789062 C 41.984375 28.789062 41.792969 28.710938 41.652344 28.574219 C 41.511719 28.4375 41.433594 28.25 41.433594 28.050781 L 41.433594 21.636719 C 41.433594 21.347656 41.414062 21.054688 41.382812 20.765625 C 41.355469 20.535156 41.3125 20.308594 41.25 20.085938 C 41.234375 20.027344 41.214844 19.964844 41.199219 19.902344 C 41.179688 19.84375 41.160156 19.785156 41.136719 19.730469 C 41.09375 19.609375 41.042969 19.488281 40.984375 19.371094 C 40.929688 19.269531 40.875 19.167969 40.808594 19.070312 C 40.746094 18.976562 40.679688 18.886719 40.609375 18.804688 C 40.539062 18.722656 40.464844 18.644531 40.386719 18.570312 C 40.3125 18.5 40.234375 18.4375 40.152344 18.375 C 40.066406 18.3125 39.980469 18.253906 39.886719 18.199219 C 39.789062 18.140625 39.6875 18.085938 39.582031 18.039062 C 39.464844 17.988281 39.34375 17.9375 39.222656 17.898438 C 38.949219 17.804688 38.664062 17.734375 38.375 17.695312 C 37.980469 17.636719 37.582031 17.609375 37.183594 17.609375 Z M 37.183594 17.609375 " fill-opacity="1" fillRule="nonzero"/></g><g clip-path="url(#8160f16a0b)"><path fill="#3c577b" d="M 17.507812 33.949219 C 17.707031 33.949219 17.898438 34.027344 18.039062 34.167969 C 18.179688 34.304688 18.257812 34.492188 18.257812 34.6875 C 18.257812 34.882812 18.179688 35.070312 18.039062 35.210938 C 17.898438 35.347656 17.707031 35.425781 17.507812 35.425781 L 14.789062 35.425781 C 14.316406 35.425781 13.84375 35.390625 13.378906 35.324219 C 12.996094 35.269531 12.621094 35.179688 12.257812 35.054688 C 12.089844 35 11.921875 34.933594 11.761719 34.859375 C 11.605469 34.789062 11.457031 34.710938 11.3125 34.628906 C 11.175781 34.546875 11.042969 34.457031 10.914062 34.363281 C 10.785156 34.269531 10.667969 34.167969 10.550781 34.0625 C 10.429688 33.945312 10.3125 33.824219 10.207031 33.699219 C 10.097656 33.570312 9.996094 33.433594 9.902344 33.292969 C 9.808594 33.144531 9.71875 32.996094 9.640625 32.839844 C 9.558594 32.675781 9.484375 32.503906 9.421875 32.332031 C 9.394531 32.253906 9.367188 32.175781 9.339844 32.097656 C 9.316406 32.011719 9.289062 31.929688 9.269531 31.84375 C 9.191406 31.554688 9.132812 31.261719 9.101562 30.964844 C 9.058594 30.621094 9.039062 30.269531 9.039062 29.921875 C 9.039062 29.726562 9.117188 29.539062 9.257812 29.398438 C 9.398438 29.261719 9.589844 29.183594 9.789062 29.183594 C 9.988281 29.183594 10.175781 29.261719 10.316406 29.398438 C 10.460938 29.539062 10.539062 29.726562 10.539062 29.921875 C 10.539062 30.214844 10.554688 30.507812 10.589844 30.796875 C 10.617188 31.023438 10.660156 31.25 10.71875 31.472656 C 10.734375 31.535156 10.753906 31.597656 10.773438 31.65625 C 10.792969 31.714844 10.8125 31.773438 10.832031 31.832031 C 10.878906 31.953125 10.929688 32.070312 10.988281 32.1875 C 11.039062 32.292969 11.097656 32.394531 11.160156 32.492188 C 11.222656 32.582031 11.289062 32.671875 11.359375 32.757812 C 11.429688 32.839844 11.503906 32.917969 11.582031 32.988281 C 11.65625 33.058594 11.734375 33.125 11.816406 33.183594 C 11.902344 33.246094 11.992188 33.308594 12.082031 33.359375 C 12.179688 33.417969 12.285156 33.472656 12.386719 33.519531 C 12.503906 33.574219 12.625 33.621094 12.746094 33.660156 C 13.023438 33.753906 13.308594 33.824219 13.597656 33.867188 C 13.988281 33.921875 14.386719 33.949219 14.785156 33.949219 C 14.785156 33.949219 14.785156 33.949219 14.789062 33.949219 Z M 17.507812 33.949219 " fill-opacity="1" fillRule="nonzero"/></g><g clip-path="url(#8592c900d9)"><path fill="#3c577b" d="M 41.433594 23.578125 L 41.433594 22.839844 L 42.929688 22.839844 L 42.929688 29.992188 C 42.929688 30.460938 42.894531 30.933594 42.816406 31.394531 C 42.753906 31.777344 42.648438 32.152344 42.507812 32.511719 C 42.441406 32.671875 42.371094 32.828125 42.292969 32.980469 C 42.214844 33.128906 42.128906 33.269531 42.039062 33.40625 C 41.949219 33.539062 41.851562 33.667969 41.746094 33.789062 C 41.644531 33.90625 41.535156 34.023438 41.417969 34.132812 C 41.296875 34.242188 41.171875 34.347656 41.039062 34.445312 C 40.90625 34.542969 40.765625 34.636719 40.621094 34.71875 C 40.464844 34.808594 40.308594 34.886719 40.144531 34.957031 C 39.972656 35.035156 39.796875 35.101562 39.617188 35.15625 C 39.539062 35.183594 39.457031 35.207031 39.375 35.230469 C 39.289062 35.253906 39.203125 35.273438 39.117188 35.292969 C 38.824219 35.363281 38.53125 35.410156 38.230469 35.441406 C 37.882812 35.476562 37.53125 35.496094 37.183594 35.496094 L 23.964844 35.496094 L 23.964844 34.019531 L 37.183594 34.019531 C 37.480469 34.019531 37.777344 34.003906 38.074219 33.976562 C 38.3125 33.949219 38.542969 33.914062 38.773438 33.859375 C 38.839844 33.84375 38.90625 33.828125 38.96875 33.808594 C 39.03125 33.792969 39.09375 33.773438 39.152344 33.753906 C 39.285156 33.714844 39.410156 33.664062 39.535156 33.609375 C 39.648438 33.5625 39.757812 33.507812 39.863281 33.445312 C 39.960938 33.390625 40.050781 33.328125 40.144531 33.261719 C 40.226562 33.199219 40.308594 33.132812 40.386719 33.058594 C 40.460938 32.988281 40.53125 32.917969 40.597656 32.839844 C 40.667969 32.757812 40.730469 32.675781 40.789062 32.589844 C 40.851562 32.5 40.90625 32.402344 40.957031 32.304688 C 41.015625 32.199219 41.066406 32.089844 41.109375 31.976562 C 41.214844 31.710938 41.289062 31.4375 41.335938 31.160156 C 41.398438 30.773438 41.433594 30.382812 41.433594 29.992188 Z M 41.433594 23.578125 " fill-opacity="1" fillRule="nonzero"/></g><g clip-path="url(#142f2b54bf)"><path fill="#3c577b" d="M 23.464844 34.226562 C 23.605469 34.085938 23.796875 34.011719 23.996094 34.011719 C 24.195312 34.011719 24.386719 34.089844 24.523438 34.230469 C 24.664062 34.371094 24.742188 34.558594 24.742188 34.753906 C 24.742188 34.949219 24.660156 35.136719 24.519531 35.273438 L 17.390625 42.210938 C 17.070312 42.523438 16.808594 42.417969 16.808594 41.972656 L 16.808594 34.757812 C 16.808594 34.5625 16.890625 34.375 17.03125 34.234375 C 17.171875 34.097656 17.359375 34.019531 17.558594 34.019531 C 17.757812 34.019531 17.949219 34.097656 18.089844 34.234375 C 18.230469 34.375 18.308594 34.5625 18.308594 34.757812 L 18.308594 38.773438 C 18.308594 39.03125 18.460938 39.09375 18.648438 38.914062 Z M 23.464844 34.226562 " fill-opacity="1" fillRule="nonzero"/></g><g clip-path="url(#c2a85f34e6)"><path fill="#3c577b" d="M 14.792969 17.609375 C 14.992188 17.609375 15.183594 17.53125 15.324219 17.394531 C 15.464844 17.253906 15.542969 17.066406 15.542969 16.871094 C 15.542969 16.675781 15.464844 16.488281 15.324219 16.351562 C 15.183594 16.210938 14.992188 16.132812 14.792969 16.132812 C 14.320312 16.132812 13.851562 16.167969 13.382812 16.234375 C 13.003906 16.289062 12.628906 16.378906 12.261719 16.503906 C 12.09375 16.5625 11.929688 16.625 11.765625 16.699219 C 11.613281 16.769531 11.464844 16.847656 11.320312 16.933594 C 11.179688 17.015625 11.046875 17.101562 10.917969 17.199219 C 10.792969 17.292969 10.671875 17.390625 10.558594 17.5 C 10.4375 17.613281 10.320312 17.734375 10.210938 17.863281 C 10.101562 17.992188 10.003906 18.125 9.910156 18.265625 C 9.8125 18.414062 9.726562 18.5625 9.648438 18.71875 C 9.566406 18.886719 9.492188 19.054688 9.429688 19.226562 C 9.398438 19.304688 9.371094 19.382812 9.347656 19.464844 C 9.320312 19.546875 9.296875 19.628906 9.273438 19.714844 C 9.199219 20.003906 9.140625 20.296875 9.105469 20.59375 C 9.066406 20.941406 9.042969 21.289062 9.042969 21.636719 L 9.042969 26.242188 C 9.042969 26.4375 9.125 26.625 9.265625 26.761719 C 9.40625 26.902344 9.59375 26.980469 9.792969 26.980469 C 9.992188 26.980469 10.183594 26.902344 10.324219 26.761719 C 10.464844 26.625 10.542969 26.4375 10.542969 26.242188 L 10.542969 21.636719 C 10.542969 21.347656 10.5625 21.054688 10.59375 20.765625 C 10.621094 20.535156 10.664062 20.308594 10.726562 20.085938 C 10.742188 20.027344 10.761719 19.964844 10.777344 19.902344 C 10.796875 19.84375 10.816406 19.785156 10.839844 19.730469 C 10.882812 19.609375 10.933594 19.488281 10.992188 19.371094 C 11.046875 19.269531 11.101562 19.167969 11.167969 19.070312 C 11.230469 18.976562 11.292969 18.886719 11.367188 18.804688 C 11.4375 18.722656 11.511719 18.644531 11.589844 18.570312 C 11.664062 18.5 11.742188 18.4375 11.824219 18.375 C 11.910156 18.3125 11.996094 18.253906 12.089844 18.199219 C 12.1875 18.140625 12.289062 18.085938 12.394531 18.039062 C 12.511719 17.988281 12.632812 17.9375 12.753906 17.898438 C 13.027344 17.804688 13.3125 17.734375 13.601562 17.695312 C 13.996094 17.636719 14.394531 17.609375 14.792969 17.609375 Z M 14.792969 17.609375 " fill-opacity="1" fillRule="nonzero"/></g><g clip-path="url(#e9938b98b9)"><path fill="#3c577b" d="M 14.554688 16.132812 L 33.480469 16.132812 C 33.679688 16.132812 33.871094 16.210938 34.011719 16.347656 C 34.152344 16.484375 34.230469 16.675781 34.230469 16.871094 C 34.230469 17.066406 34.152344 17.253906 34.011719 17.390625 C 33.871094 17.53125 33.679688 17.605469 33.480469 17.605469 L 14.554688 17.605469 C 14.257812 17.605469 14.203125 16.132812 14.554688 16.132812 Z M 14.554688 16.132812 " fill-opacity="1" fillRule="nonzero"/></g><g clip-path="url(#780314162e)"><path fill="#fec533" d="M 7.804688 27.386719 C 8.003906 27.386719 8.195312 27.464844 8.335938 27.605469 C 8.476562 27.742188 8.554688 27.929688 8.554688 28.125 C 8.554688 28.320312 8.476562 28.507812 8.335938 28.648438 C 8.195312 28.785156 8.003906 28.863281 7.808594 28.863281 C 7.335938 28.863281 6.863281 28.832031 6.398438 28.761719 C 6.015625 28.707031 5.640625 28.617188 5.277344 28.492188 C 5.109375 28.4375 4.941406 28.371094 4.78125 28.296875 C 4.625 28.226562 4.476562 28.148438 4.332031 28.066406 C 4.195312 27.984375 4.0625 27.894531 3.933594 27.800781 C 3.804688 27.707031 3.6875 27.605469 3.570312 27.5 C 3.449219 27.382812 3.332031 27.265625 3.226562 27.136719 C 3.117188 27.007812 3.015625 26.871094 2.921875 26.730469 C 2.828125 26.585938 2.738281 26.433594 2.660156 26.277344 C 2.578125 26.113281 2.503906 25.945312 2.441406 25.769531 C 2.414062 25.691406 2.386719 25.613281 2.359375 25.535156 C 2.335938 25.449219 2.308594 25.367188 2.289062 25.285156 C 2.210938 24.996094 2.152344 24.699219 2.121094 24.402344 C 2.078125 24.058594 2.058594 23.707031 2.058594 23.359375 L 2.058594 16.945312 C 2.058594 16.75 2.136719 16.5625 2.277344 16.421875 C 2.417969 16.285156 2.609375 16.207031 2.808594 16.207031 C 3.007812 16.207031 3.195312 16.285156 3.335938 16.421875 C 3.476562 16.5625 3.558594 16.75 3.558594 16.945312 L 3.558594 23.359375 C 3.558594 23.652344 3.574219 23.945312 3.609375 24.234375 C 3.636719 24.460938 3.679688 24.6875 3.738281 24.910156 C 3.753906 24.972656 3.773438 25.035156 3.792969 25.09375 C 3.808594 25.152344 3.832031 25.210938 3.851562 25.269531 C 3.894531 25.390625 3.949219 25.507812 4.007812 25.625 C 4.058594 25.730469 4.117188 25.832031 4.179688 25.929688 C 4.242188 26.019531 4.308594 26.109375 4.378906 26.195312 C 4.449219 26.277344 4.523438 26.355469 4.601562 26.425781 C 4.675781 26.496094 4.753906 26.5625 4.835938 26.621094 C 4.921875 26.6875 5.011719 26.746094 5.101562 26.800781 C 5.199219 26.855469 5.304688 26.910156 5.40625 26.957031 C 5.523438 27.011719 5.644531 27.058594 5.765625 27.097656 C 6.042969 27.195312 6.328125 27.261719 6.617188 27.304688 C 7.007812 27.359375 7.40625 27.386719 7.804688 27.386719 Z M 7.804688 27.386719 " fill-opacity="1" fillRule="nonzero"/></g><g clip-path="url(#208726d0e0)"><path fill="#fec533" d="M 27.484375 11.046875 C 27.285156 11.046875 27.09375 10.96875 26.953125 10.832031 C 26.8125 10.691406 26.734375 10.503906 26.734375 10.308594 C 26.734375 10.113281 26.8125 9.925781 26.953125 9.789062 C 27.09375 9.648438 27.285156 9.570312 27.484375 9.570312 L 30.203125 9.570312 C 30.671875 9.570312 31.144531 9.605469 31.609375 9.671875 C 31.992188 9.726562 32.367188 9.816406 32.734375 9.941406 C 32.902344 10 33.066406 10.066406 33.230469 10.136719 C 33.382812 10.207031 33.53125 10.285156 33.675781 10.371094 C 33.816406 10.453125 33.949219 10.539062 34.078125 10.636719 C 34.203125 10.730469 34.324219 10.828125 34.4375 10.9375 C 34.558594 11.050781 34.675781 11.171875 34.785156 11.300781 C 34.890625 11.429688 34.992188 11.5625 35.085938 11.703125 C 35.183594 11.851562 35.269531 12.003906 35.347656 12.160156 C 35.429688 12.324219 35.503906 12.492188 35.566406 12.664062 C 35.597656 12.742188 35.621094 12.820312 35.648438 12.902344 C 35.675781 12.984375 35.699219 13.066406 35.722656 13.152344 C 35.796875 13.441406 35.855469 13.734375 35.890625 14.03125 C 35.929688 14.378906 35.949219 14.726562 35.949219 15.074219 C 35.949219 15.269531 35.871094 15.460938 35.730469 15.597656 C 35.589844 15.734375 35.398438 15.8125 35.199219 15.8125 C 35.003906 15.8125 34.8125 15.734375 34.671875 15.597656 C 34.53125 15.460938 34.453125 15.269531 34.453125 15.074219 C 34.453125 14.785156 34.433594 14.492188 34.398438 14.203125 C 34.371094 13.972656 34.328125 13.746094 34.269531 13.527344 C 34.253906 13.464844 34.234375 13.402344 34.21875 13.339844 C 34.199219 13.28125 34.179688 13.222656 34.15625 13.167969 C 34.113281 13.046875 34.0625 12.925781 34.003906 12.808594 C 33.949219 12.707031 33.890625 12.605469 33.828125 12.507812 C 33.765625 12.414062 33.699219 12.324219 33.628906 12.242188 C 33.558594 12.160156 33.484375 12.082031 33.40625 12.007812 C 33.332031 11.9375 33.253906 11.875 33.171875 11.8125 C 33.085938 11.75 33 11.691406 32.90625 11.636719 C 32.808594 11.578125 32.707031 11.523438 32.601562 11.476562 C 32.484375 11.425781 32.363281 11.375 32.242188 11.335938 C 31.96875 11.242188 31.683594 11.171875 31.394531 11.132812 C 31 11.074219 30.601562 11.046875 30.203125 11.046875 Z M 27.484375 11.046875 " fill-opacity="1" fillRule="nonzero"/></g><g clip-path="url(#83551466ab)"><path fill="#fec533" d="M 3.558594 21.421875 L 3.558594 22.15625 L 2.058594 22.15625 L 2.058594 15.003906 C 2.058594 14.535156 2.097656 14.066406 2.175781 13.601562 C 2.238281 13.21875 2.339844 12.847656 2.484375 12.484375 C 2.546875 12.324219 2.617188 12.167969 2.699219 12.015625 C 2.773438 11.871094 2.859375 11.726562 2.953125 11.589844 C 3.042969 11.457031 3.136719 11.332031 3.242188 11.210938 C 3.34375 11.089844 3.457031 10.972656 3.570312 10.867188 C 3.691406 10.753906 3.816406 10.652344 3.949219 10.554688 C 4.082031 10.453125 4.226562 10.363281 4.371094 10.277344 C 4.523438 10.191406 4.679688 10.109375 4.84375 10.039062 C 5.015625 9.964844 5.191406 9.898438 5.371094 9.839844 C 5.453125 9.816406 5.535156 9.789062 5.617188 9.769531 C 5.699219 9.746094 5.785156 9.722656 5.871094 9.703125 C 6.164062 9.636719 6.460938 9.585938 6.757812 9.554688 C 7.105469 9.519531 7.457031 9.5 7.808594 9.503906 L 21.023438 9.503906 L 21.023438 10.976562 L 7.808594 10.976562 C 7.804688 10.976562 7.804688 10.976562 7.804688 10.976562 C 7.507812 10.976562 7.210938 10.992188 6.914062 11.023438 C 6.679688 11.046875 6.445312 11.085938 6.214844 11.140625 C 6.148438 11.152344 6.082031 11.171875 6.019531 11.1875 C 5.957031 11.207031 5.898438 11.222656 5.835938 11.242188 C 5.707031 11.285156 5.578125 11.332031 5.453125 11.386719 C 5.339844 11.4375 5.234375 11.492188 5.128906 11.550781 C 5.03125 11.609375 4.9375 11.667969 4.847656 11.734375 C 4.761719 11.796875 4.679688 11.867188 4.601562 11.9375 C 4.527344 12.007812 4.457031 12.082031 4.390625 12.160156 C 4.324219 12.238281 4.257812 12.320312 4.199219 12.410156 C 4.140625 12.5 4.082031 12.59375 4.03125 12.691406 C 3.976562 12.796875 3.925781 12.90625 3.878906 13.019531 C 3.777344 13.285156 3.699219 13.558594 3.652344 13.839844 C 3.589844 14.226562 3.558594 14.613281 3.558594 15.003906 Z M 3.558594 21.421875 " fill-opacity="1" fillRule="nonzero"/></g><g clip-path="url(#ed604bdffd)"><path fill="#fec533" d="M 21.523438 10.773438 C 21.382812 10.910156 21.191406 10.988281 20.992188 10.984375 C 20.792969 10.984375 20.605469 10.90625 20.464844 10.765625 C 20.324219 10.628906 20.246094 10.441406 20.246094 10.246094 C 20.25 10.050781 20.328125 9.863281 20.46875 9.722656 L 27.597656 2.785156 C 27.917969 2.472656 28.179688 2.582031 28.179688 3.023438 L 28.179688 10.242188 C 28.179688 10.4375 28.101562 10.625 27.960938 10.761719 C 27.820312 10.898438 27.628906 10.976562 27.429688 10.976562 C 27.230469 10.976562 27.039062 10.898438 26.898438 10.761719 C 26.757812 10.625 26.679688 10.4375 26.679688 10.242188 L 26.679688 6.222656 C 26.679688 5.964844 26.527344 5.902344 26.339844 6.085938 Z M 21.523438 10.773438 " fill-opacity="1" fillRule="nonzero"/></g><g clip-path="url(#e398f029fc)"><path fill="#fec533" d="M 30.195312 27.386719 C 29.996094 27.386719 29.808594 27.464844 29.667969 27.605469 C 29.527344 27.742188 29.445312 27.929688 29.445312 28.125 C 29.445312 28.320312 29.523438 28.507812 29.664062 28.648438 C 29.804688 28.785156 29.996094 28.863281 30.195312 28.863281 C 30.667969 28.863281 31.136719 28.832031 31.605469 28.761719 C 31.988281 28.707031 32.363281 28.617188 32.726562 28.492188 C 32.894531 28.4375 33.0625 28.371094 33.222656 28.296875 C 33.375 28.226562 33.527344 28.148438 33.671875 28.066406 C 33.808594 27.984375 33.941406 27.894531 34.070312 27.800781 C 34.195312 27.707031 34.316406 27.605469 34.429688 27.5 C 34.554688 27.382812 34.667969 27.265625 34.777344 27.136719 C 34.886719 27.007812 34.988281 26.871094 35.078125 26.730469 C 35.175781 26.585938 35.265625 26.433594 35.34375 26.277344 C 35.425781 26.113281 35.496094 25.945312 35.5625 25.769531 C 35.589844 25.691406 35.617188 25.613281 35.644531 25.535156 C 35.667969 25.449219 35.691406 25.367188 35.714844 25.285156 C 35.792969 24.996094 35.847656 24.699219 35.882812 24.402344 C 35.925781 24.058594 35.945312 23.707031 35.945312 23.359375 L 35.945312 18.753906 C 35.945312 18.558594 35.867188 18.371094 35.726562 18.234375 C 35.585938 18.09375 35.394531 18.019531 35.195312 18.019531 C 34.996094 18.019531 34.804688 18.09375 34.664062 18.234375 C 34.523438 18.371094 34.445312 18.558594 34.445312 18.753906 L 34.445312 23.359375 C 34.445312 23.652344 34.429688 23.945312 34.394531 24.234375 C 34.367188 24.460938 34.324219 24.6875 34.265625 24.910156 C 34.25 24.972656 34.230469 25.035156 34.210938 25.09375 C 34.191406 25.152344 34.171875 25.210938 34.152344 25.269531 C 34.105469 25.390625 34.054688 25.507812 33.996094 25.625 C 33.945312 25.730469 33.886719 25.832031 33.820312 25.929688 C 33.761719 26.019531 33.695312 26.109375 33.625 26.195312 C 33.554688 26.277344 33.480469 26.355469 33.398438 26.425781 C 33.328125 26.496094 33.25 26.5625 33.167969 26.621094 C 33.082031 26.6875 32.992188 26.746094 32.902344 26.800781 C 32.800781 26.855469 32.699219 26.910156 32.59375 26.957031 C 32.476562 27.011719 32.359375 27.058594 32.238281 27.097656 C 31.960938 27.195312 31.675781 27.261719 31.386719 27.304688 C 30.992188 27.359375 30.59375 27.386719 30.195312 27.386719 Z M 30.195312 27.386719 " fill-opacity="1" fillRule="nonzero"/></g><g clip-path="url(#e0c4a288a2)"><path fill="#fec533" d="M 30.433594 28.863281 L 11.507812 28.863281 C 11.308594 28.863281 11.117188 28.789062 10.976562 28.648438 C 10.835938 28.511719 10.757812 28.324219 10.757812 28.128906 C 10.757812 27.933594 10.835938 27.746094 10.976562 27.605469 C 11.117188 27.46875 11.308594 27.390625 11.507812 27.390625 L 30.433594 27.390625 C 30.730469 27.390625 30.789062 28.863281 30.433594 28.863281 Z M 30.433594 28.863281 " fill-opacity="1" fillRule="nonzero"/></g></svg>