<svg xmlns="http://www.w3.org/2000/svg" xmlns:xlink="http://www.w3.org/1999/xlink" width="300" zoomAndPan="magnify" viewBox="0 0 90 44.999999" height="240" preserveAspectRatio="xMidYMid meet" version="1.0"><defs><g/><clipPath id="70e413cd56"><path d="M 22 18.648438 L 26.222656 18.648438 L 26.222656 27 L 22 27 Z M 22 18.648438 " clip-rule="nonzero"/></clipPath><clipPath id="7b5f417c06"><path d="M 5.894531 26 L 12 26 L 12 31 L 5.894531 31 Z M 5.894531 26 " clip-rule="nonzero"/></clipPath><clipPath id="81be6c8ca3"><path d="M 14 22 L 26.222656 22 L 26.222656 31 L 14 31 Z M 14 22 " clip-rule="nonzero"/></clipPath><clipPath id="dfbf97a096"><path d="M 10 29 L 16 29 L 16 34.757812 L 10 34.757812 Z M 10 29 " clip-rule="nonzero"/></clipPath><clipPath id="d614cbdbcb"><path d="M 5.894531 18.648438 L 10 18.648438 L 10 26 L 5.894531 26 Z M 5.894531 18.648438 " clip-rule="nonzero"/></clipPath><clipPath id="992f3dc963"><path d="M 9 18.648438 L 22 18.648438 L 22 20 L 9 20 Z M 9 18.648438 " clip-rule="nonzero"/></clipPath><clipPath id="4d69800d0c"><path d="M 1.800781 18 L 6 18 L 6 26.347656 L 1.800781 26.347656 Z M 1.800781 18 " clip-rule="nonzero"/></clipPath><clipPath id="a8e9cdeda0"><path d="M 16 14 L 22.128906 14 L 22.128906 19 L 16 19 Z M 16 14 " clip-rule="nonzero"/></clipPath><clipPath id="a424ba365a"><path d="M 1.800781 14 L 14 14 L 14 23 L 1.800781 23 Z M 1.800781 14 " clip-rule="nonzero"/></clipPath><clipPath id="e791505320"><path d="M 12 10.242188 L 18 10.242188 L 18 16 L 12 16 Z M 12 10.242188 " clip-rule="nonzero"/></clipPath><clipPath id="74c0bd9bba"><path d="M 18 19 L 22.128906 19 L 22.128906 26.347656 L 18 26.347656 Z M 18 19 " clip-rule="nonzero"/></clipPath><clipPath id="829698561c"><path d="M 7 25 L 19 25 L 19 26.347656 L 7 26.347656 Z M 7 25 " clip-rule="nonzero"/></clipPath></defs><g clip-path="url(#70e413cd56)"><path fill="#3c577b" d="M 22.777344 19.558594 C 22.65625 19.558594 22.542969 19.511719 22.460938 19.425781 C 22.375 19.34375 22.328125 19.226562 22.328125 19.109375 C 22.328125 18.988281 22.375 18.875 22.457031 18.792969 C 22.542969 18.707031 22.65625 18.660156 22.777344 18.660156 C 23.058594 18.660156 23.34375 18.679688 23.621094 18.722656 C 23.851562 18.753906 24.078125 18.808594 24.296875 18.882812 C 24.394531 18.917969 24.496094 18.960938 24.59375 19.003906 C 24.683594 19.046875 24.773438 19.09375 24.859375 19.144531 C 24.945312 19.195312 25.023438 19.25 25.101562 19.308594 C 25.175781 19.363281 25.25 19.425781 25.316406 19.492188 C 25.390625 19.5625 25.460938 19.632812 25.523438 19.710938 C 25.589844 19.789062 25.652344 19.875 25.707031 19.960938 C 25.765625 20.046875 25.816406 20.140625 25.863281 20.234375 C 25.914062 20.335938 25.957031 20.4375 25.996094 20.542969 C 26.011719 20.59375 26.027344 20.640625 26.042969 20.6875 C 26.058594 20.738281 26.074219 20.789062 26.085938 20.839844 C 26.132812 21.019531 26.167969 21.195312 26.1875 21.378906 C 26.214844 21.589844 26.226562 21.800781 26.226562 22.015625 L 26.226562 25.925781 C 26.226562 26.042969 26.179688 26.160156 26.09375 26.242188 C 26.007812 26.328125 25.894531 26.375 25.777344 26.375 C 25.65625 26.375 25.542969 26.328125 25.457031 26.242188 C 25.375 26.160156 25.324219 26.042969 25.324219 25.925781 L 25.324219 22.015625 C 25.324219 21.835938 25.316406 21.660156 25.296875 21.480469 C 25.277344 21.34375 25.253906 21.203125 25.21875 21.070312 C 25.207031 21.03125 25.195312 20.992188 25.183594 20.957031 C 25.175781 20.921875 25.164062 20.886719 25.148438 20.851562 C 25.121094 20.777344 25.089844 20.703125 25.058594 20.632812 C 25.023438 20.570312 24.992188 20.507812 24.953125 20.449219 C 24.914062 20.390625 24.875 20.339844 24.832031 20.285156 C 24.789062 20.238281 24.746094 20.1875 24.699219 20.144531 C 24.65625 20.101562 24.609375 20.0625 24.558594 20.027344 C 24.507812 19.988281 24.453125 19.949219 24.398438 19.917969 C 24.339844 19.882812 24.277344 19.851562 24.214844 19.820312 C 24.144531 19.789062 24.074219 19.761719 24 19.734375 C 23.835938 19.675781 23.664062 19.636719 23.492188 19.609375 C 23.253906 19.574219 23.015625 19.558594 22.777344 19.558594 Z M 22.777344 19.558594 " fill-opacity="1" fillRule="nonzero"/></g><g clip-path="url(#7b5f417c06)"><path fill="#3c577b" d="M 10.972656 29.519531 C 11.09375 29.519531 11.207031 29.566406 11.292969 29.652344 C 11.375 29.738281 11.421875 29.851562 11.421875 29.96875 C 11.421875 30.089844 11.375 30.203125 11.292969 30.289062 C 11.207031 30.371094 11.09375 30.417969 10.972656 30.417969 L 9.34375 30.417969 C 9.058594 30.417969 8.777344 30.398438 8.496094 30.359375 C 8.269531 30.324219 8.042969 30.269531 7.824219 30.195312 C 7.722656 30.160156 7.625 30.121094 7.527344 30.074219 C 7.433594 30.03125 7.34375 29.984375 7.257812 29.933594 C 7.175781 29.882812 7.09375 29.828125 7.019531 29.769531 C 6.941406 29.714844 6.871094 29.652344 6.800781 29.589844 C 6.730469 29.519531 6.660156 29.445312 6.59375 29.367188 C 6.527344 29.289062 6.46875 29.207031 6.414062 29.121094 C 6.355469 29.03125 6.300781 28.9375 6.253906 28.84375 C 6.207031 28.742188 6.164062 28.640625 6.125 28.535156 C 6.105469 28.488281 6.089844 28.4375 6.074219 28.390625 C 6.058594 28.339844 6.046875 28.289062 6.03125 28.238281 C 5.984375 28.0625 5.953125 27.882812 5.929688 27.703125 C 5.90625 27.488281 5.894531 27.277344 5.894531 27.066406 C 5.894531 26.945312 5.941406 26.832031 6.027344 26.746094 C 6.109375 26.664062 6.222656 26.613281 6.34375 26.613281 C 6.460938 26.613281 6.578125 26.664062 6.660156 26.746094 C 6.746094 26.832031 6.792969 26.945312 6.792969 27.066406 C 6.792969 27.242188 6.804688 27.421875 6.824219 27.597656 C 6.839844 27.734375 6.867188 27.875 6.902344 28.007812 C 6.910156 28.046875 6.921875 28.085938 6.933594 28.121094 C 6.945312 28.15625 6.957031 28.191406 6.96875 28.226562 C 6.996094 28.300781 7.027344 28.375 7.0625 28.445312 C 7.09375 28.507812 7.128906 28.570312 7.167969 28.628906 C 7.203125 28.6875 7.242188 28.742188 7.285156 28.792969 C 7.328125 28.84375 7.371094 28.890625 7.421875 28.933594 C 7.464844 28.976562 7.511719 29.015625 7.558594 29.054688 C 7.613281 29.09375 7.664062 29.128906 7.71875 29.160156 C 7.78125 29.195312 7.839844 29.230469 7.902344 29.257812 C 7.972656 29.289062 8.046875 29.320312 8.117188 29.34375 C 8.285156 29.402344 8.453125 29.441406 8.628906 29.46875 C 8.863281 29.503906 9.101562 29.519531 9.34375 29.519531 Z M 10.972656 29.519531 " fill-opacity="1" fillRule="nonzero"/></g><g clip-path="url(#81be6c8ca3)"><path fill="#3c577b" d="M 25.324219 23.195312 L 25.324219 22.746094 L 26.226562 22.746094 L 26.226562 27.105469 C 26.226562 27.394531 26.203125 27.679688 26.15625 27.964844 C 26.117188 28.195312 26.054688 28.421875 25.96875 28.644531 C 25.933594 28.742188 25.890625 28.835938 25.839844 28.929688 C 25.796875 29.019531 25.746094 29.105469 25.6875 29.1875 C 25.636719 29.269531 25.578125 29.347656 25.515625 29.421875 C 25.453125 29.496094 25.386719 29.566406 25.316406 29.632812 C 25.246094 29.699219 25.171875 29.761719 25.089844 29.820312 C 25.011719 29.882812 24.925781 29.9375 24.839844 29.988281 C 24.746094 30.042969 24.652344 30.089844 24.554688 30.132812 C 24.453125 30.179688 24.34375 30.222656 24.238281 30.257812 C 24.191406 30.273438 24.140625 30.285156 24.089844 30.300781 C 24.039062 30.316406 23.988281 30.328125 23.9375 30.339844 C 23.761719 30.382812 23.585938 30.410156 23.40625 30.429688 C 23.195312 30.453125 22.988281 30.460938 22.777344 30.460938 L 14.847656 30.460938 L 14.847656 29.5625 L 22.777344 29.5625 C 22.957031 29.5625 23.132812 29.554688 23.3125 29.535156 C 23.453125 29.519531 23.59375 29.496094 23.730469 29.464844 C 23.769531 29.457031 23.808594 29.445312 23.847656 29.433594 C 23.886719 29.425781 23.921875 29.414062 23.957031 29.402344 C 24.035156 29.375 24.113281 29.347656 24.1875 29.3125 C 24.253906 29.28125 24.320312 29.25 24.382812 29.214844 C 24.441406 29.179688 24.5 29.140625 24.550781 29.101562 C 24.605469 29.0625 24.652344 29.019531 24.699219 28.976562 C 24.742188 28.933594 24.785156 28.890625 24.824219 28.84375 C 24.867188 28.792969 24.90625 28.742188 24.941406 28.691406 C 24.976562 28.636719 25.011719 28.578125 25.042969 28.519531 C 25.074219 28.453125 25.105469 28.386719 25.132812 28.316406 C 25.195312 28.15625 25.242188 27.988281 25.269531 27.820312 C 25.304688 27.582031 25.324219 27.34375 25.324219 27.105469 Z M 25.324219 23.195312 " fill-opacity="1" fillRule="nonzero"/></g><g clip-path="url(#dfbf97a096)"><path fill="#3c577b" d="M 14.546875 29.6875 C 14.632812 29.605469 14.746094 29.558594 14.867188 29.558594 C 14.984375 29.558594 15.101562 29.605469 15.183594 29.691406 C 15.269531 29.777344 15.316406 29.890625 15.3125 30.011719 C 15.3125 30.128906 15.265625 30.242188 15.179688 30.328125 L 10.90625 34.554688 C 10.710938 34.746094 10.554688 34.683594 10.554688 34.410156 L 10.554688 30.011719 C 10.554688 29.894531 10.605469 29.777344 10.6875 29.695312 C 10.773438 29.609375 10.886719 29.5625 11.007812 29.5625 C 11.125 29.5625 11.238281 29.609375 11.324219 29.695312 C 11.410156 29.777344 11.457031 29.894531 11.457031 30.011719 L 11.457031 32.460938 C 11.457031 32.617188 11.546875 32.65625 11.660156 32.546875 Z M 14.546875 29.6875 " fill-opacity="1" fillRule="nonzero"/></g><g clip-path="url(#d614cbdbcb)"><path fill="#3c577b" d="M 9.347656 19.558594 C 9.464844 19.558594 9.578125 19.511719 9.664062 19.425781 C 9.75 19.34375 9.796875 19.226562 9.796875 19.109375 C 9.796875 18.988281 9.75 18.875 9.664062 18.792969 C 9.582031 18.707031 9.464844 18.660156 9.347656 18.660156 C 9.0625 18.660156 8.78125 18.679688 8.5 18.722656 C 8.273438 18.753906 8.046875 18.808594 7.828125 18.882812 C 7.726562 18.917969 7.628906 18.960938 7.53125 19.003906 C 7.4375 19.046875 7.347656 19.09375 7.261719 19.144531 C 7.179688 19.195312 7.097656 19.25 7.023438 19.308594 C 6.945312 19.363281 6.875 19.425781 6.804688 19.492188 C 6.730469 19.5625 6.664062 19.632812 6.597656 19.710938 C 6.53125 19.789062 6.472656 19.875 6.417969 19.960938 C 6.359375 20.046875 6.304688 20.140625 6.257812 20.234375 C 6.210938 20.335938 6.164062 20.4375 6.128906 20.542969 C 6.109375 20.59375 6.09375 20.640625 6.078125 20.6875 C 6.0625 20.738281 6.050781 20.789062 6.035156 20.839844 C 5.988281 21.019531 5.957031 21.195312 5.933594 21.378906 C 5.910156 21.589844 5.898438 21.800781 5.898438 22.015625 L 5.898438 24.820312 C 5.898438 24.941406 5.945312 25.054688 6.03125 25.140625 C 6.113281 25.222656 6.226562 25.269531 6.347656 25.269531 C 6.464844 25.269531 6.582031 25.222656 6.664062 25.140625 C 6.75 25.054688 6.796875 24.941406 6.796875 24.820312 L 6.796875 22.015625 C 6.796875 21.835938 6.808594 21.660156 6.828125 21.480469 C 6.84375 21.34375 6.871094 21.203125 6.90625 21.070312 C 6.914062 21.03125 6.925781 20.992188 6.9375 20.957031 C 6.949219 20.921875 6.960938 20.886719 6.972656 20.851562 C 7 20.777344 7.03125 20.703125 7.066406 20.632812 C 7.097656 20.570312 7.132812 20.507812 7.171875 20.449219 C 7.207031 20.390625 7.246094 20.339844 7.289062 20.285156 C 7.332031 20.238281 7.375 20.1875 7.425781 20.144531 C 7.46875 20.101562 7.515625 20.0625 7.5625 20.027344 C 7.617188 19.988281 7.667969 19.949219 7.722656 19.917969 C 7.78125 19.882812 7.84375 19.851562 7.90625 19.820312 C 7.976562 19.789062 8.050781 19.761719 8.121094 19.734375 C 8.289062 19.675781 8.457031 19.636719 8.632812 19.609375 C 8.867188 19.574219 9.105469 19.558594 9.347656 19.558594 Z M 9.347656 19.558594 " fill-opacity="1" fillRule="nonzero"/></g><g clip-path="url(#992f3dc963)"><path fill="#3c577b" d="M 9.203125 18.65625 L 20.558594 18.65625 C 20.675781 18.65625 20.789062 18.707031 20.875 18.789062 C 20.960938 18.875 21.007812 18.988281 21.007812 19.109375 C 21.007812 19.226562 20.960938 19.339844 20.875 19.425781 C 20.789062 19.511719 20.675781 19.558594 20.558594 19.558594 L 9.203125 19.558594 C 9.027344 19.558594 8.992188 18.65625 9.203125 18.65625 Z M 9.203125 18.65625 " fill-opacity="1" fillRule="nonzero"/></g><g clip-path="url(#4d69800d0c)"><path fill="#fec533" d="M 5.246094 25.441406 C 5.367188 25.441406 5.480469 25.488281 5.566406 25.574219 C 5.648438 25.65625 5.695312 25.769531 5.695312 25.890625 C 5.695312 26.011719 5.648438 26.125 5.566406 26.207031 C 5.480469 26.292969 5.367188 26.339844 5.246094 26.339844 C 4.964844 26.339844 4.683594 26.320312 4.402344 26.277344 C 4.171875 26.246094 3.949219 26.191406 3.730469 26.113281 C 3.628906 26.078125 3.527344 26.039062 3.429688 25.996094 C 3.339844 25.953125 3.25 25.90625 3.164062 25.851562 C 3.082031 25.804688 3 25.75 2.921875 25.691406 C 2.847656 25.632812 2.773438 25.574219 2.707031 25.507812 C 2.632812 25.4375 2.5625 25.367188 2.5 25.289062 C 2.433594 25.207031 2.375 25.125 2.316406 25.039062 C 2.257812 24.953125 2.207031 24.859375 2.160156 24.761719 C 2.109375 24.664062 2.066406 24.558594 2.027344 24.457031 C 2.011719 24.40625 1.996094 24.359375 1.980469 24.308594 C 1.964844 24.261719 1.949219 24.210938 1.9375 24.15625 C 1.890625 23.980469 1.855469 23.800781 1.835938 23.621094 C 1.8125 23.410156 1.796875 23.199219 1.796875 22.984375 L 1.796875 19.074219 C 1.796875 18.957031 1.847656 18.839844 1.929688 18.757812 C 2.015625 18.671875 2.128906 18.625 2.25 18.625 C 2.367188 18.625 2.480469 18.671875 2.566406 18.757812 C 2.652344 18.839844 2.699219 18.957031 2.699219 19.074219 L 2.699219 22.984375 C 2.699219 23.164062 2.707031 23.339844 2.730469 23.519531 C 2.746094 23.65625 2.769531 23.792969 2.804688 23.929688 C 2.816406 23.96875 2.828125 24.003906 2.839844 24.042969 C 2.851562 24.078125 2.863281 24.113281 2.875 24.148438 C 2.902344 24.222656 2.933594 24.296875 2.96875 24.367188 C 3 24.429688 3.035156 24.492188 3.074219 24.550781 C 3.109375 24.605469 3.148438 24.660156 3.191406 24.710938 C 3.234375 24.761719 3.277344 24.8125 3.324219 24.855469 C 3.371094 24.898438 3.417969 24.9375 3.464844 24.972656 C 3.515625 25.011719 3.570312 25.050781 3.625 25.082031 C 3.683594 25.117188 3.746094 25.148438 3.808594 25.179688 C 3.878906 25.210938 3.949219 25.238281 4.023438 25.265625 C 4.1875 25.324219 4.359375 25.363281 4.53125 25.390625 C 4.769531 25.421875 5.007812 25.441406 5.246094 25.441406 Z M 5.246094 25.441406 " fill-opacity="1" fillRule="nonzero"/></g><g clip-path="url(#a8e9cdeda0)"><path fill="#fec533" d="M 17.050781 15.480469 C 16.929688 15.480469 16.816406 15.433594 16.730469 15.347656 C 16.648438 15.261719 16.601562 15.148438 16.601562 15.03125 C 16.601562 14.910156 16.648438 14.796875 16.730469 14.710938 C 16.816406 14.628906 16.929688 14.578125 17.050781 14.578125 L 18.679688 14.578125 C 18.964844 14.578125 19.246094 14.601562 19.527344 14.640625 C 19.753906 14.675781 19.980469 14.730469 20.199219 14.804688 C 20.300781 14.839844 20.398438 14.878906 20.496094 14.925781 C 20.589844 14.96875 20.679688 15.015625 20.765625 15.066406 C 20.847656 15.117188 20.929688 15.171875 21.007812 15.230469 C 21.082031 15.285156 21.152344 15.347656 21.222656 15.410156 C 21.296875 15.480469 21.363281 15.554688 21.429688 15.632812 C 21.496094 15.710938 21.554688 15.792969 21.609375 15.878906 C 21.667969 15.96875 21.722656 16.0625 21.769531 16.15625 C 21.816406 16.257812 21.863281 16.359375 21.898438 16.464844 C 21.917969 16.511719 21.933594 16.5625 21.949219 16.609375 C 21.964844 16.660156 21.980469 16.710938 21.992188 16.761719 C 22.039062 16.9375 22.074219 17.117188 22.09375 17.296875 C 22.117188 17.507812 22.128906 17.722656 22.128906 17.933594 C 22.128906 18.054688 22.082031 18.167969 22 18.253906 C 21.914062 18.335938 21.800781 18.382812 21.679688 18.382812 C 21.5625 18.382812 21.445312 18.335938 21.363281 18.253906 C 21.277344 18.167969 21.230469 18.054688 21.230469 17.933594 C 21.230469 17.757812 21.21875 17.578125 21.199219 17.402344 C 21.183594 17.261719 21.15625 17.125 21.121094 16.992188 C 21.113281 16.953125 21.101562 16.914062 21.089844 16.875 C 21.078125 16.839844 21.066406 16.804688 21.054688 16.773438 C 21.027344 16.699219 20.996094 16.625 20.960938 16.554688 C 20.929688 16.492188 20.894531 16.429688 20.855469 16.367188 C 20.820312 16.3125 20.78125 16.257812 20.738281 16.207031 C 20.695312 16.15625 20.652344 16.109375 20.605469 16.066406 C 20.558594 16.023438 20.511719 15.984375 20.464844 15.945312 C 20.414062 15.90625 20.359375 15.871094 20.304688 15.839844 C 20.246094 15.804688 20.183594 15.769531 20.121094 15.742188 C 20.050781 15.710938 19.976562 15.679688 19.90625 15.65625 C 19.738281 15.597656 19.570312 15.554688 19.394531 15.53125 C 19.160156 15.496094 18.921875 15.480469 18.683594 15.480469 C 18.683594 15.480469 18.683594 15.480469 18.679688 15.480469 Z M 17.050781 15.480469 " fill-opacity="1" fillRule="nonzero"/></g><g clip-path="url(#a424ba365a)"><path fill="#fec533" d="M 2.699219 21.804688 L 2.699219 22.253906 L 1.796875 22.253906 L 1.796875 17.890625 C 1.796875 17.605469 1.820312 17.320312 1.867188 17.035156 C 1.90625 16.804688 1.96875 16.574219 2.054688 16.355469 C 2.09375 16.257812 2.136719 16.164062 2.183594 16.070312 C 2.226562 15.980469 2.28125 15.894531 2.335938 15.8125 C 2.390625 15.730469 2.445312 15.652344 2.507812 15.578125 C 2.570312 15.503906 2.636719 15.433594 2.707031 15.367188 C 2.777344 15.300781 2.855469 15.238281 2.933594 15.179688 C 3.015625 15.117188 3.097656 15.0625 3.1875 15.011719 C 3.277344 14.957031 3.371094 14.90625 3.46875 14.863281 C 3.574219 14.820312 3.679688 14.777344 3.785156 14.742188 C 3.835938 14.726562 3.882812 14.710938 3.933594 14.699219 C 3.984375 14.683594 4.035156 14.671875 4.085938 14.660156 C 4.261719 14.617188 4.4375 14.589844 4.617188 14.570312 C 4.828125 14.546875 5.035156 14.535156 5.246094 14.539062 L 13.175781 14.539062 L 13.175781 15.4375 L 5.246094 15.4375 C 5.066406 15.4375 4.890625 15.445312 4.710938 15.464844 C 4.570312 15.480469 4.429688 15.503906 4.292969 15.535156 C 4.253906 15.542969 4.214844 15.554688 4.175781 15.566406 C 4.136719 15.574219 4.101562 15.585938 4.066406 15.597656 C 3.988281 15.625 3.910156 15.652344 3.835938 15.6875 C 3.769531 15.714844 3.703125 15.75 3.640625 15.785156 C 3.582031 15.820312 3.527344 15.859375 3.472656 15.898438 C 3.421875 15.9375 3.371094 15.976562 3.324219 16.023438 C 3.28125 16.066406 3.238281 16.109375 3.199219 16.15625 C 3.15625 16.207031 3.117188 16.257812 3.082031 16.308594 C 3.046875 16.363281 3.011719 16.421875 2.980469 16.480469 C 2.949219 16.546875 2.917969 16.613281 2.890625 16.683594 C 2.828125 16.84375 2.785156 17.011719 2.757812 17.179688 C 2.71875 17.417969 2.699219 17.652344 2.699219 17.890625 Z M 2.699219 21.804688 " fill-opacity="1" fillRule="nonzero"/></g><g clip-path="url(#e791505320)"><path fill="#fec533" d="M 13.476562 15.3125 C 13.390625 15.394531 13.277344 15.441406 13.15625 15.441406 C 13.039062 15.441406 12.925781 15.394531 12.839844 15.308594 C 12.757812 15.222656 12.710938 15.109375 12.710938 14.988281 C 12.710938 14.871094 12.757812 14.757812 12.84375 14.671875 L 17.117188 10.441406 C 17.3125 10.253906 17.46875 10.316406 17.46875 10.589844 L 17.46875 14.988281 C 17.46875 15.105469 17.421875 15.222656 17.335938 15.304688 C 17.253906 15.390625 17.136719 15.4375 17.019531 15.4375 C 16.898438 15.4375 16.785156 15.390625 16.699219 15.304688 C 16.617188 15.222656 16.566406 15.105469 16.566406 14.988281 L 16.566406 12.539062 C 16.566406 12.382812 16.476562 12.34375 16.363281 12.453125 Z M 13.476562 15.3125 " fill-opacity="1" fillRule="nonzero"/></g><g clip-path="url(#74c0bd9bba)"><path fill="#fec533" d="M 18.679688 25.441406 C 18.558594 25.441406 18.445312 25.488281 18.359375 25.574219 C 18.277344 25.65625 18.226562 25.769531 18.226562 25.890625 C 18.226562 26.011719 18.273438 26.125 18.359375 26.207031 C 18.445312 26.292969 18.558594 26.339844 18.675781 26.339844 C 18.960938 26.339844 19.242188 26.320312 19.523438 26.277344 C 19.75 26.246094 19.976562 26.191406 20.195312 26.113281 C 20.296875 26.078125 20.394531 26.039062 20.492188 25.996094 C 20.585938 25.953125 20.675781 25.90625 20.761719 25.851562 C 20.84375 25.804688 20.925781 25.75 21.003906 25.691406 C 21.078125 25.632812 21.148438 25.574219 21.21875 25.507812 C 21.292969 25.4375 21.359375 25.367188 21.425781 25.289062 C 21.492188 25.207031 21.550781 25.125 21.605469 25.039062 C 21.664062 24.953125 21.71875 24.859375 21.765625 24.761719 C 21.8125 24.664062 21.859375 24.558594 21.894531 24.457031 C 21.914062 24.40625 21.929688 24.359375 21.945312 24.308594 C 21.960938 24.261719 21.976562 24.210938 21.988281 24.15625 C 22.035156 23.980469 22.070312 23.800781 22.089844 23.621094 C 22.113281 23.410156 22.125 23.199219 22.125 22.984375 L 22.125 20.179688 C 22.125 20.058594 22.078125 19.945312 21.996094 19.859375 C 21.910156 19.777344 21.796875 19.730469 21.675781 19.730469 C 21.558594 19.730469 21.441406 19.777344 21.359375 19.859375 C 21.273438 19.945312 21.226562 20.058594 21.226562 20.179688 L 21.226562 22.984375 C 21.226562 23.164062 21.214844 23.339844 21.195312 23.519531 C 21.179688 23.65625 21.152344 23.792969 21.117188 23.929688 C 21.109375 23.96875 21.097656 24.003906 21.085938 24.042969 C 21.074219 24.078125 21.0625 24.113281 21.050781 24.148438 C 21.023438 24.222656 20.992188 24.296875 20.957031 24.367188 C 20.925781 24.429688 20.890625 24.492188 20.851562 24.550781 C 20.816406 24.605469 20.777344 24.660156 20.734375 24.710938 C 20.691406 24.761719 20.648438 24.8125 20.601562 24.855469 C 20.554688 24.898438 20.507812 24.9375 20.460938 24.972656 C 20.410156 25.011719 20.355469 25.050781 20.300781 25.082031 C 20.242188 25.117188 20.179688 25.148438 20.117188 25.179688 C 20.046875 25.210938 19.976562 25.238281 19.902344 25.265625 C 19.734375 25.324219 19.566406 25.363281 19.390625 25.390625 C 19.15625 25.421875 18.917969 25.441406 18.679688 25.441406 Z M 18.679688 25.441406 " fill-opacity="1" fillRule="nonzero"/></g><g clip-path="url(#829698561c)"><path fill="#fec533" d="M 18.820312 26.339844 L 7.46875 26.339844 C 7.347656 26.339844 7.234375 26.292969 7.148438 26.210938 C 7.066406 26.125 7.015625 26.011719 7.015625 25.890625 C 7.015625 25.773438 7.066406 25.660156 7.148438 25.574219 C 7.234375 25.488281 7.347656 25.441406 7.46875 25.441406 L 18.820312 25.441406 C 19 25.441406 19.03125 26.339844 18.820312 26.339844 Z M 18.820312 26.339844 " fill-opacity="1" fillRule="nonzero"/></g><g fill="#3c577b" fill-opacity="1"><g transform="translate(27.613552, 28.491708)"><g><path d="M 4.625 -9.046875 C 5.289062 -9.046875 5.894531 -8.925781 6.4375 -8.6875 C 6.976562 -8.457031 7.421875 -8.132812 7.765625 -7.71875 C 8.109375 -7.300781 8.332031 -6.820312 8.4375 -6.28125 C 8.457031 -6.1875 8.46875 -6.109375 8.46875 -6.046875 C 8.46875 -5.972656 8.453125 -5.925781 8.421875 -5.90625 C 8.398438 -5.882812 8.351562 -5.867188 8.28125 -5.859375 L 6.171875 -5.734375 C 6.085938 -5.734375 6.035156 -5.742188 6.015625 -5.765625 C 5.992188 -5.796875 5.96875 -5.859375 5.9375 -5.953125 C 5.863281 -6.335938 5.726562 -6.640625 5.53125 -6.859375 C 5.34375 -7.078125 5.066406 -7.1875 4.703125 -7.1875 C 4.234375 -7.1875 3.867188 -6.976562 3.609375 -6.5625 C 3.347656 -6.144531 3.21875 -5.46875 3.21875 -4.53125 C 3.21875 -3.5625 3.335938 -2.875 3.578125 -2.46875 C 3.816406 -2.0625 4.1875 -1.859375 4.6875 -1.859375 C 5.113281 -1.859375 5.476562 -1.960938 5.78125 -2.171875 C 6.082031 -2.390625 6.332031 -2.753906 6.53125 -3.265625 C 6.550781 -3.335938 6.617188 -3.375 6.734375 -3.375 C 6.796875 -3.375 6.84375 -3.367188 6.875 -3.359375 L 8.375 -3.0625 C 8.488281 -3.019531 8.546875 -2.925781 8.546875 -2.78125 C 8.546875 -2.550781 8.40625 -2.203125 8.125 -1.734375 C 7.851562 -1.265625 7.421875 -0.835938 6.828125 -0.453125 C 6.242188 -0.0664062 5.503906 0.125 4.609375 0.125 C 3.753906 0.125 3.003906 -0.078125 2.359375 -0.484375 C 1.722656 -0.890625 1.226562 -1.445312 0.875 -2.15625 C 0.53125 -2.863281 0.359375 -3.671875 0.359375 -4.578125 C 0.359375 -5.484375 0.53125 -6.269531 0.875 -6.9375 C 1.226562 -7.613281 1.726562 -8.132812 2.375 -8.5 C 3.019531 -8.863281 3.769531 -9.046875 4.625 -9.046875 Z M 4.625 -9.046875 "/></g></g></g><g fill="#3c577b" fill-opacity="1"><g transform="translate(36.479857, 28.491708)"><g><path d="M 3.546875 -3.578125 C 3.492188 -3.578125 3.445312 -3.554688 3.40625 -3.515625 C 3.375 -3.484375 3.359375 -3.441406 3.359375 -3.390625 L 3.359375 -0.34375 C 3.359375 -0.21875 3.328125 -0.128906 3.265625 -0.078125 C 3.203125 -0.0234375 3.097656 0 2.953125 0 L 0.953125 0 C 0.828125 0 0.738281 -0.0195312 0.6875 -0.0625 C 0.644531 -0.113281 0.625 -0.191406 0.625 -0.296875 L 0.625 -8.65625 C 0.625 -8.738281 0.644531 -8.800781 0.6875 -8.84375 C 0.726562 -8.894531 0.785156 -8.921875 0.859375 -8.921875 L 3.140625 -8.921875 C 3.203125 -8.921875 3.253906 -8.898438 3.296875 -8.859375 C 3.335938 -8.816406 3.359375 -8.753906 3.359375 -8.671875 L 3.359375 -5.890625 C 3.359375 -5.722656 3.429688 -5.640625 3.578125 -5.640625 L 5.59375 -5.640625 C 5.738281 -5.640625 5.8125 -5.722656 5.8125 -5.890625 L 5.8125 -8.671875 C 5.8125 -8.753906 5.832031 -8.816406 5.875 -8.859375 C 5.914062 -8.898438 5.96875 -8.921875 6.03125 -8.921875 L 8.3125 -8.921875 C 8.382812 -8.921875 8.441406 -8.894531 8.484375 -8.84375 C 8.523438 -8.800781 8.546875 -8.738281 8.546875 -8.65625 L 8.546875 -0.296875 C 8.546875 -0.191406 8.519531 -0.113281 8.46875 -0.0625 C 8.414062 -0.0195312 8.332031 0 8.21875 0 L 6.203125 0 C 6.066406 0 5.96875 -0.0234375 5.90625 -0.078125 C 5.84375 -0.128906 5.8125 -0.21875 5.8125 -0.34375 L 5.8125 -3.390625 C 5.8125 -3.441406 5.789062 -3.484375 5.75 -3.515625 C 5.71875 -3.554688 5.675781 -3.578125 5.625 -3.578125 Z M 3.546875 -3.578125 "/></g></g></g><g fill="#3c577b" fill-opacity="1"><g transform="translate(45.646917, 28.491708)"><g><path d="M 0.515625 0 C 0.453125 0 0.398438 -0.0195312 0.359375 -0.0625 C 0.316406 -0.101562 0.296875 -0.164062 0.296875 -0.25 C 0.296875 -0.3125 0.3125 -0.375 0.34375 -0.4375 L 3.25 -8.65625 C 3.289062 -8.757812 3.332031 -8.828125 3.375 -8.859375 C 3.425781 -8.898438 3.503906 -8.921875 3.609375 -8.921875 L 5.984375 -8.921875 C 6.078125 -8.921875 6.160156 -8.890625 6.234375 -8.828125 C 6.316406 -8.773438 6.375 -8.703125 6.40625 -8.609375 L 9.296875 -0.40625 C 9.316406 -0.34375 9.328125 -0.296875 9.328125 -0.265625 C 9.328125 -0.191406 9.3125 -0.128906 9.28125 -0.078125 C 9.25 -0.0234375 9.195312 0 9.125 0 L 6.78125 0 C 6.632812 0 6.546875 -0.0664062 6.515625 -0.203125 L 6.046875 -1.59375 C 6.015625 -1.644531 5.988281 -1.679688 5.96875 -1.703125 C 5.945312 -1.722656 5.910156 -1.734375 5.859375 -1.734375 L 3.3125 -1.734375 C 3.21875 -1.734375 3.15625 -1.6875 3.125 -1.59375 L 2.640625 -0.1875 C 2.585938 -0.0625 2.488281 0 2.34375 0 Z M 5.25 -3.78125 C 5.34375 -3.78125 5.390625 -3.816406 5.390625 -3.890625 C 5.390625 -3.910156 5.378906 -3.953125 5.359375 -4.015625 L 4.640625 -6.078125 C 4.628906 -6.117188 4.609375 -6.140625 4.578125 -6.140625 C 4.546875 -6.140625 4.519531 -6.117188 4.5 -6.078125 L 3.765625 -4.03125 C 3.742188 -4 3.734375 -3.957031 3.734375 -3.90625 C 3.734375 -3.820312 3.785156 -3.78125 3.890625 -3.78125 Z M 5.25 -3.78125 "/></g></g></g><g fill="#3c577b" fill-opacity="1"><g transform="translate(55.259097, 28.491708)"><g><path d="M 0.34375 -8.65625 C 0.34375 -8.726562 0.367188 -8.789062 0.421875 -8.84375 C 0.472656 -8.894531 0.546875 -8.921875 0.640625 -8.921875 L 7.828125 -8.921875 C 7.929688 -8.921875 8.007812 -8.894531 8.0625 -8.84375 C 8.113281 -8.789062 8.140625 -8.726562 8.140625 -8.65625 L 8.140625 -7.21875 C 8.140625 -7.0625 8.050781 -6.984375 7.875 -6.984375 L 5.734375 -6.984375 C 5.640625 -6.984375 5.59375 -6.945312 5.59375 -6.875 L 5.59375 -0.265625 C 5.59375 -0.171875 5.570312 -0.101562 5.53125 -0.0625 C 5.488281 -0.0195312 5.429688 0 5.359375 0 L 3.078125 0 C 2.929688 0 2.859375 -0.078125 2.859375 -0.234375 L 2.859375 -6.828125 C 2.859375 -6.929688 2.816406 -6.984375 2.734375 -6.984375 L 0.609375 -6.984375 C 0.429688 -6.984375 0.34375 -7.0625 0.34375 -7.21875 Z M 0.34375 -8.65625 "/></g></g></g><path stroke-linecap="butt" transform="matrix(0.0388751, 0, 0, 0.0388751, 51.628815, 17.995432)" fill="none" stroke-linejoin="miter" d="M 96.867094 44.229138 C 96.867094 42.018532 97.570469 40.310337 98.876736 39.00407 C 100.283485 37.597321 102.293127 36.893946 104.805179 36.893946 L 295.922113 36.893946 C 298.534647 36.893946 300.443807 37.597321 301.850556 39.00407 C 303.257306 40.310337 303.96068 42.018532 303.96068 44.229138 L 303.96068 82.211368 C 303.96068 86.230652 301.649592 88.240294 296.926934 88.240294 L 240.355518 88.240294 C 237.843466 88.240294 236.537198 89.345597 236.537198 91.45572 L 236.537198 266.99793 C 236.537198 269.309018 236.034788 271.117696 234.929485 272.323481 C 233.824182 273.428784 232.417433 274.031677 230.407791 274.031677 L 169.716609 274.031677 C 165.89829 274.031677 163.98913 271.821071 163.98913 267.600823 L 163.98913 92.761988 C 163.98913 89.747525 162.783345 88.240294 160.472257 88.240294 L 104.202287 88.240294 C 99.278664 88.240294 96.867094 86.230652 96.867094 82.211368 Z M 396.30372 36.893946 C 400.12204 36.893946 402.131682 39.104552 402.131682 43.525764 L 402.131682 264.686842 C 402.131682 268.103233 401.227343 270.615286 399.519147 271.921553 C 397.810952 273.328302 395.097935 274.031677 391.581062 274.031677 L 338.225073 274.031677 C 334.909164 274.031677 332.698558 273.328302 331.392291 272.122517 C 330.186506 270.81625 329.483131 268.806608 329.483131 265.99311 L 329.483131 44.229138 C 329.483131 41.817568 329.985541 40.008891 331.090844 38.803106 C 332.196147 37.496838 333.703379 36.893946 335.612538 36.893946 Z M 443.630784 274.031677 C 441.01825 274.031677 439.008608 273.22782 437.501377 271.620107 C 435.994146 270.012393 435.290771 267.801787 435.290771 264.988289 L 435.290771 44.229138 C 435.290771 41.616604 435.793181 39.807926 436.898484 38.602141 C 438.003787 37.496838 439.711983 36.893946 442.023071 36.893946 L 531.552613 36.893946 C 534.265629 36.893946 536.275271 37.195392 537.380574 37.898767 C 538.586359 38.702624 539.59118 40.209855 540.495519 42.621425 L 573.75509 144.208817 C 574.357983 145.917013 575.061357 146.821352 575.965696 146.821352 C 576.568589 146.821352 577.271963 145.917013 577.874856 144.208817 L 607.617554 46.138298 C 609.32575 39.908409 612.139248 36.893946 616.158532 36.893946 L 708.602054 36.893946 C 712.420373 36.893946 714.329533 39.104552 714.329533 43.525764 L 714.329533 264.686842 C 714.329533 268.103233 713.525676 270.615286 711.917963 271.921553 C 710.310249 273.328302 707.697715 274.031677 704.180842 274.031677 L 650.020996 274.031677 C 646.906051 274.031677 644.695445 273.328302 643.48966 272.122517 C 642.384357 270.81625 641.781465 268.806608 641.781465 265.99311 L 641.781465 122.504686 C 641.781465 120.79649 641.379536 119.992634 640.575679 119.992634 C 639.470377 119.992634 638.566038 120.896973 637.963145 122.806132 L 591.942348 268.203716 C 590.435117 272.122517 587.822583 274.031677 584.305709 274.031677 L 550.744692 274.031677 C 546.926372 274.031677 544.313838 272.122517 543.007571 268.203716 L 497.087256 125.318184 C 496.383881 123.208061 495.580025 122.102758 494.776168 122.102758 C 493.670865 122.102758 493.168454 123.308543 493.168454 125.619631 L 493.168454 266.99793 C 493.168454 269.710947 492.766526 271.620107 491.862187 272.624927 C 491.058331 273.529266 489.149171 274.031677 486.134708 274.031677 Z M 747.589105 44.229138 C 747.589105 39.305516 749.598746 36.893946 753.718512 36.893946 L 926.246259 36.893946 C 930.064579 36.893946 931.973739 39.104552 931.973739 43.525764 L 931.672292 80.603655 C 931.672292 86.431616 928.959276 89.245114 923.432761 89.245114 L 827.472366 89.245114 C 822.649225 89.245114 820.137173 91.254756 820.137173 95.27404 L 820.137173 122.504686 C 820.137173 124.61481 820.639584 126.222523 821.744887 127.428308 C 822.85019 128.634093 824.256939 129.236986 825.965134 129.236986 L 883.440889 129.236986 C 887.962583 129.236986 890.173189 131.34711 890.173189 135.567358 L 890.173189 175.257783 C 890.173189 178.875138 888.26403 180.683816 884.345228 180.683816 L 825.26176 180.683816 C 823.754528 180.683816 822.548743 181.085744 821.543922 181.990083 C 820.639584 182.79394 820.137173 183.899243 820.137173 185.105028 L 820.137173 217.158814 C 820.137173 218.86701 820.438619 219.972313 820.94103 220.575205 C 821.44344 221.27858 822.448261 221.580026 823.955492 221.580026 L 927.853973 221.580026 C 932.576631 221.580026 934.887719 223.589668 934.887719 227.608951 L 934.887719 266.99793 C 934.887719 269.108054 934.184344 270.81625 932.878077 272.122517 C 931.672292 273.328302 929.763133 274.031677 927.25108 274.031677 L 756.230564 274.031677 C 753.015137 274.031677 750.804531 273.328302 749.498264 272.122517 C 748.191997 270.81625 747.589105 268.806608 747.589105 265.99311 Z M 747.589105 44.229138 " stroke="#fec533" stroke-width="11.986238" stroke-opacity="1" stroke-miterlimit="4"/></svg>